<?xml version="1.0" encoding="UTF-8" standalone="no"?>
<svg
   xmlns:dc="http://purl.org/dc/elements/1.1/"
   xmlns:cc="http://creativecommons.org/ns#"
   xmlns:rdf="http://www.w3.org/1999/02/22-rdf-syntax-ns#"
   xmlns:svg="http://www.w3.org/2000/svg"
   xmlns="http://www.w3.org/2000/svg"
   xmlns:sodipodi="http://sodipodi.sourceforge.net/DTD/sodipodi-0.dtd"
   xmlns:inkscape="http://www.inkscape.org/namespaces/inkscape"
   viewBox="0 0 302.65826 398.12268"
   version="1.1"
   id="svg1054"
   sodipodi:docname="6.svg"
   inkscape:version="1.0.1 (c497b03c, 2020-09-10)"
   width="302.65826"
   height="398.12268">
  <metadata
     id="metadata1058">
    <rdf:RDF>
      <cc:Work
         rdf:about="">
        <dc:format>image/svg+xml</dc:format>
        <dc:type
           rdf:resource="http://purl.org/dc/dcmitype/StillImage" />
        <dc:title>Web_SVG</dc:title>
      </cc:Work>
    </rdf:RDF>
  </metadata>
  <sodipodi:namedview
     pagecolor="#ffffff"
     bordercolor="#666666"
     borderopacity="1"
     objecttolerance="10"
     gridtolerance="10"
     guidetolerance="10"
     inkscape:pageopacity="0"
     inkscape:pageshadow="2"
     inkscape:window-width="1256"
     inkscape:window-height="607"
     id="namedview1056"
     showgrid="false"
     inkscape:zoom="0.83484846"
     inkscape:cx="105.00162"
     inkscape:cy="149.95736"
     inkscape:window-x="0"
     inkscape:window-y="25"
     inkscape:window-maximized="0"
     inkscape:current-layer="svg1054"
     inkscape:document-rotation="0"
     fit-margin-top="0"
     fit-margin-left="0"
     fit-margin-right="0"
     fit-margin-bottom="0" />
  <defs
     id="defs843">
    <style
       id="style833">.cls-1{fill:none;}.cls-2,.cls-9{fill:#d6d8e5;}.cls-2{opacity:0.4;isolation:isolate;}.cls-3{fill:#d5d6e0;}.cls-4{fill:#e9eaf4;}.cls-5{fill:url(#Безымянный_градиент_15);}.cls-6{clip-path:url(#clip-path);}.cls-7{fill:#8c50ff;}.cls-8{opacity:0.05;}.cls-9{opacity:0.4;}.cls-10{fill:#c5c7d3;}.cls-11{fill:#38226d;}.cls-12{fill:#9c73ff;}.cls-13{fill:#ffcea9;}.cls-14{fill:#ededed;}.cls-15{fill:#e5e5e5;}.cls-16{fill:#f4f4f4;}.cls-17{fill:#bfbfbf;}.cls-18{fill:#3a2c6d;}.cls-19{fill:#dceeff;}.cls-20{fill:#dbdbdb;}.cls-21{fill:#1e3779;}.cls-22{fill:#031f60;}</style>
    <linearGradient
       id="Безымянный_градиент_15"
       x1="235.62"
       y1="356.16"
       x2="235.62"
       y2="256.92999"
       gradientUnits="userSpaceOnUse">
      <stop
         offset="0"
         stop-color="#e9eaf4"
         id="stop835" />
      <stop
         offset="0.63"
         stop-color="#e9eaf4"
         stop-opacity="0"
         id="stop837" />
    </linearGradient>
    <clipPath
       id="clip-path">
      <circle
         class="cls-1"
         cx="233.41"
         cy="151.32001"
         r="151.32001"
         id="circle840" />
    </clipPath>
  </defs>
  <title
     id="title845">Web_SVG</title>
  <path
     class="cls-2"
     d="m 146.09827,397.27001 -47.08,-27.18 c -2.19,-1.27 -1.92,-3.48 0.62,-4.94 l 45.84,-26.47 c 2.54,-1.46 6.37,-1.62 8.56,-0.36 l 47.07,27.18 c 2.2,1.27 1.92,3.48 -0.61,4.94 l -45.85,26.47 c -2.53,1.47 -6.36,1.62 -8.55,0.36 z"
     id="path847" />
  <path
     class="cls-3"
     d="m 205.92827,362.37001 -2.32,0.71 -46.23,-26.7 c -2.19,-1.26 -6,-1.1 -8.55,0.36 l -45.85,26.47 -0.11,0.07 -2,-0.61 v 3 c 0,0.11 0,0.22 0,0.34 v 0.24 0 a 2.68,2.68 0 0 0 1.44,1.86 l 47.08,27.18 c 2.19,1.26 6,1.11 8.56,-0.36 l 45.98,-26.43 a 3.62,3.62 0 0 0 2.08,-2.64 v 0 z"
     id="path851" />
  <path
     class="cls-4"
     d="m 149.47827,392.14001 -47.08,-27.14 c -2.19,-1.26 -1.91,-3.47 0.62,-4.93 l 45.85,-26.47 c 2.53,-1.47 6.36,-1.63 8.55,-0.36 l 47.08,27.18 c 2.19,1.27 1.92,3.48 -0.62,4.94 l -45.84,26.47 c -2.54,1.42 -6.37,1.58 -8.56,0.31 z"
     id="path853" />
  <path
     class="cls-3"
     d="m 173.30827,360.25001 v -4 l -5.7,1.5 -12.68,-7.35 a 3.58,3.58 0 0 0 -3.24,0.14 l -12.33,7.12 -5.83,-1.54 v 4.31 0 1 a 0.48,0.48 0 0 0 0,0.12 v 0.1 0 a 1,1 0 0 0 0.55,0.7 l 17.85,10.39 a 3.61,3.61 0 0 0 3.24,-0.13 l 17.38,-10 a 1.36,1.36 0 0 0 0.78,-1 v 0 -1.32 z"
     id="path855" />
  <path
     class="cls-4"
     d="m 151.92827,367.33001 -17.87,-10.33 c -0.83,-0.48 -0.73,-1.32 0.23,-1.87 l 17.38,-10 a 3.58,3.58 0 0 1 3.26,-0.13 l 17.84,10.3 c 0.83,0.48 0.73,1.32 -0.23,1.88 l -17.38,10 a 3.61,3.61 0 0 1 -3.23,0.15 z"
     id="path857" />
  <polygon
     class="cls-5"
     points="129.08,260.92 342.17,256.93 235.48,356.16 "
     id="polygon859"
     style="fill:url(#%D0%91%D0%B5%D0%B7%D1%8B%D0%BC%D1%8F%D0%BD%D0%BD%D1%8B%D0%B9_%D0%B3%D1%80%D0%B0%D0%B4%D0%B8%D0%B5%D0%BD%D1%82_15)"
     transform="translate(-82.071732)" />
  <circle
     class="cls-4"
     cx="151.33827"
     cy="151.32001"
     r="151.32001"
     id="circle861" />
  <g
     class="cls-6"
     clip-path="url(#clip-path)"
     id="g865"
     transform="translate(-82.071732)">
    <path
       class="cls-7"
       d="m 193.61,61.31 0.51,-1.79 v -3.88 a 9.1,9.1 0 0 1 -2.17,0 c -0.38,-0.17 -0.12,-1.23 -0.12,-1.23 l 1.78,-1.53 -3.57,0.76 -1.28,2 -4,2.47 1.79,1 1.15,0.76 1.72,0.26 V 59 c 0,0 2,-0.51 2.49,0.25 l -0.25,1.41 z m -44.22,55.25 a 4,4 0 0 0 -3.28,0 2.7,2.7 0 0 1 -2.56,2.73 l 2.92,1.63 2.92,-1.09 3.82,-1.27 3.27,2.36 c 2.46,-3 0,-4.73 0,-4.73 z m 62.1,55.63 -2.83,-0.6 -4.92,-3.13 h -4.32 l -3.73,-1.93 h -1.49 c 0,0 0.3,-2.09 -0.15,-2.24 -0.45,-0.15 -3.72,-2.09 -3.72,-2.09 l -2.54,0.9 v -1.79 L 186,160.56 h -1.49 l 0.15,-1.49 c 0,0 1.34,-2.65 0.6,-3.11 -0.74,-0.46 -3.43,-6.43 -3.43,-6.43 l -4,-2.24 h -4.32 l -3.73,-3.57 -3.72,-3 -2.09,-4.17 -2.24,-1.49 c 0,0 -2.53,1.64 -3.13,1.49 -0.6,-0.15 -4.32,-1.49 -4.32,-1.49 l -3.13,-0.89 -3.91,1.83 v 4 l -1.49,-1 v -1.5 l 1.34,-2.53 0.6,-1.79 -1.34,-0.59 -1.79,2.08 -4.47,1.33 -0.9,1.94 -2.09,1.94 -0.59,1.64 -3.28,-2.68 a 25.86,25.86 0 0 1 -3.43,1.49 22.67,22.67 0 0 1 -3.43,-2.24 l -1.64,-3.13 0.9,-4.17 0.74,-4.33 -2.83,-1.79 h -3.88 l -3,-0.89 1.4,-2.24 1.64,-3.28 1.49,-2.38 c 0,0 0.42,-1.09 0.9,-1.34 1.9,-1 0,-1.94 0,-1.94 0,0 -4,-0.3 -4.62,0 -0.62,0.3 -2.24,1.19 -2.24,1.19 v 3.43 l -3,1.34 -4.62,1 -3.13,-3.14 c -0.45,-0.44 -1.49,-5.36 -1.49,-5.36 l 1.93,-1.79 0.9,-1.49 0.15,-3.58 1.93,-1.64 0.75,-1.94 2.22,-1.62 2.13,-1.95 1.94,-0.59 2.68,0.59 c 0.15,-1 5.07,-0.59 5.07,-0.59 l 1.94,-0.1 -0.15,-1.09 c 0.9,-0.75 3.88,0 3.88,0 l 4,-0.34 c 0.88,0.19 1.62,2 1.62,2 l -1.79,1.64 1.2,3.57 1.19,1.64 -0.45,1.64 2.87,-0.42 0.14,-2.84 0.15,-3.43 -0.44,-3.76 2.68,-5.78 10.88,-7 -0.15,-2.54 0.74,-3.65 1.94,0.67 3.43,-4.07 4.47,-1.48 2.68,-1.82 1.34,-2.69 4.92,-1.49 4.92,-2.53 -2.26,2.41 -0.3,2.09 2.68,-0.6 2.39,-1.34 2.08,-0.59 1.94,-0.6 0.6,-1.34 h -1.34 l -2.09,-0.75 c -1.34,-1 -3,-2.23 -3,-2.23 a 1.66,1.66 0 0 1 0.44,-1.35 l 1.35,-1.21 c 0,0 0.59,-0.72 0.15,-0.72 -0.44,0 -3.73,-0.72 -3.73,-0.72 l -3.58,1.44 H 168 l 2.54,-2.21 h 2.83 l 3.13,-0.75 h 6.5 l 3.58,-0.75 2.55,-1.37 3.13,-0.32 0.9,-3.35 -2.09,-1.79 -3,-1.55 -0.6,-3.52 -1.64,-3.58 h -1.49 l -0.15,1.94 h -2.38 l -0.6,1.19 -0.89,0.6 -1.49,0.3 -1.35,-1.35 1.79,-1.93 -2.08,-1.94 -2.54,-1.34 H 172 l -1.94,0.59 -2.68,3.13 -2.09,1.79 0.6,1.64 -0.76,2.49 0.45,1 -2.54,0.9 -2.83,0.59 -1.19,-0.3 -0.9,1.2 1.64,3.35 -1.64,1.12 h -2.23 l -1.89,-2.43 -0.45,-1.38 1.34,-0.74 -1,-1.79 -3.13,-0.15 -4.17,-2.59 h -1.94 l -0.45,-1.59 -1.34,-0.59 1.94,-2.24 2.83,-1.64 4.92,-1.79 1.79,-0.59 3.87,-0.9 2.6,-1.44 2.38,-2.09 h 3.13 l 3.73,-0.94 h 2.39 l 1,-2.78 h -4.77 l -1.79,1.37 h -3.13 a 5.39,5.39 0 0 0 -2.39,-1.37 v -1.1 L 163,24.6 165.13,23 a 12.52,12.52 0 0 0 1.79,-3.13 l 4.32,1.49 3.27,-0.17 2.25,-0.13 2.83,0.15 1.64,0.6 C 180.78,23 179,22.11 179,22.11 l -5.37,0.59 -2.39,1.3 0.75,-1.64 -2.54,0.15 -3,1.93 2.09,1.05 h 4.92 l 2.68,1 2.24,-0.89 2.38,0.89 2.84,0.9 -3.43,1.07 -3,1.41 -3,0.65 -2.38,0.89 1,2.09 6.26,-0.15 3.95,2.43 h 3.28 l 0.15,-1.34 0.74,-1.34 1.5,-0.3 -1.2,-1.64 -0.44,-1.24 h 1.78 l 1.5,1.09 c 1.19,0.9 3.72,-1.09 3.72,-1.09 l 3.73,-1.41 -4.62,-1.37 -1.49,-1.49 c 0.44,-0.9 -4.92,-2.24 -4.92,-2.24 l -4.18,-2.53 -1,-1.05 H 178 l 2.83,-1.19 7,0.74 3.58,-0.74 8.2,-2.09 5.51,-1.34 4,-1.49 -4.63,-0.72 c 0,0 -3.28,0.9 -3.73,0.9 -0.45,0 -4.32,0.3 -4.77,0.3 h -10.44 l -3.27,0.74 3,0.75 -1.79,1 h -3.13 l -1.79,0.6 2.38,-1.79 -2.53,-0.6 -3.13,0.75 -3.88,2.23 1.79,0.6 2.54,-1 2.08,0.44 -2.23,0.6 -0.9,1.19 1.49,0.45 -4,0.3 -7,-1.19 -2.83,3.42 -5.67,4 1.49,1.19 -1,0.63 -1.34,0.71 -3.88,-0.71 -5.36,1.41 -9.84,2.43 -32.89,31.65 -13.12,17.1 -7.6,45.62 13.41,-4.47 2.09,2.23 3.58,0.6 2.39,1.49 2.53,-1 2.09,2.09 4.62,2.53 4.47,0.6 1.34,4.47 c 0,0 3.13,2.83 3,3.43 -0.13,0.6 1,3.28 1.64,3.28 a 30.41,30.41 0 0 1 4.33,1.94 l 2.53,0.29 1,-2.23 h 2.24 v 2.23 l 0.9,1.2 0.29,3.42 0.9,2.54 -1.49,1.64 -2.39,3 -3,4.15 0.3,4 -0.75,2.68 2.24,0.75 -1.94,2.68 a 32.55,32.55 0 0 1 1,3.43 30.41,30.41 0 0 0 1.64,3.73 l 2.09,1.79 0.9,3 5.07,10.43 3.57,3 5.22,2.68 c 0,0 3.28,3.58 3.43,4 0.15,0.42 1.79,7 1.79,7 l -0.07,3.68 1,3.87 0.3,4.33 0.45,6 1.49,4.77 1.34,6.26 -1.64,2.09 1,3.09 1.2,4.51 2.08,2.24 -0.14,3.58 0.44,3.57 9.25,9.84 1.78,1.94 v -4.62 l 3,-1.73 V 260 l -3,-1.34 v -2.09 l 1.47,-1.34 1.48,-2.39 v -1.94 c 1.23,-0.44 0,-1.79 0,-1.79 h -2.05 l -0.15,-1.93 h 1.94 l 0.8,1.19 1.58,-1.19 -1.19,-2.39 c 0.3,-0.74 2.39,0 2.39,0 l 3.57,-2.09 1.49,-1.78 v -2.39 l -1.7,-1.53 -1.5,-2.39 h 1.79 c 0,0 2.69,1.35 3.58,0 0.89,-1.35 2.24,-3.13 2.24,-3.13 l 1.64,-3.87 c 0,0 3.13,-5.67 3.43,-6.12 0.3,-0.45 0,-6 0,-6 l 4.92,-4 h 3.28 l 2.68,-4.48 2.09,-2.94 v -5 l 0.74,-4.77 -1.17,-4.66 4.17,-5.52 3.13,-3 -1.19,-5.51 z m 33.22,-117.14 1,0.59 1.36,-1.18 H 249 l 1.78,-0.6 0.8,-1.1 -0.38,-1.52 0.76,-0.81 c 0.09,-1.23 -1.86,-2.12 -1.86,-2.12 H 249 l -1.36,1.57 h -1.44 l -0.51,1.78 0.21,1.34 -1.19,0.74 z m 9,-11.27 -1.52,0.68 v 2.29 l 0.17,0.59 a 6.36,6.36 0 0 1 0.17,1.44 l 1.1,0.76 1.1,0.68 0.51,1 c 0,0 -0.17,1 -0.76,1 l -1.36,0.43 0.51,0.93 c 0,0 -1,0.51 -1.1,0.93 l 0.93,0.68 -0.85,0.85 h -1.86 v 1 h 3.9 l 1.61,-1 2.37,0.42 c 0,0 1.95,-0.42 2.37,-0.42 l -0.34,-0.43 0.6,-0.76 0.93,-1.1 -1.19,-0.48 -1.35,-0.42 0.17,-1.44 -1.28,-1 -1.94,-1.06 -0.17,-1.95 0.17,-1.69 h -2 l -0.42,-0.85 1.18,-1.1 z m 11.1,7.29 v -0.64 h 1.36 l 0.76,-0.55 v -2.12 l 1,-0.51 -0.34,-1.69 L 266,45 263.63,45.76 V 47 l -1.44,0.17 -0.34,1.14 1,0.47 -1.61,0.93 -0.43,0.72 1.36,1.23 z m 85.4,51.37 5.6,3 2.89,-1.12 1.92,2.72 5.13,1.13 2.24,1.12 6.25,-16.5 L 372.45,84 344.45,38.18 336.09,32 H 326 l -4.49,0.64 -1.12,2.25 L 318,34 316.87,32 h -2.25 l 1,1 0.81,1.61 h -3.53 v 1.99 l -2.52,-0.37 -1.53,-0.23 -0.86,0.43 0.8,0.49 1.11,0.25 -1,0.37 -1.34,-0.54 -1.67,-0.56 -0.5,-1.11 -1.23,-1 -1.42,-0.19 -1,-1.17 2.18,0.19 1.92,0.86 1.6,0.19 c 0,0 1,-0.25 1.11,-0.07 a 12.12,12.12 0 0 0 2.35,0.5 l 1.3,-1 L 310,32 306.1,30.85 c 0,0 -6.55,-0.9 -6.86,-0.88 a 28.82,28.82 0 0 1 -2.78,-0.85 l -2.28,-0.56 h -5 l -7.6,1.41 -4.2,2.67 -5,4.51 c 0,0 -4.32,0.62 -4.57,0.68 a 20.44,20.44 0 0 0 -2,1.91 l 1,2.17 -0.25,1 0.68,0.55 0.5,1 0.68,1 2.53,-0.37 2.72,-1.54 2.1,1.11 1.61,2.78 0.3,1.67 1.92,0.37 1.3,-1.11 1.36,-0.31 0.74,-2.23 0.12,-1.73 1.86,-0.55 v -1.14 l -0.68,-0.49 -0.87,-0.56 -0.31,-2 2.83,-1.79 c 0,0 1.5,-1.36 1.5,-1.6 0,-0.24 0.74,-1.06 0.74,-1.06 0,0 1.18,0.07 1.55,0.13 0.37,0.06 2.34,0.74 2.34,0.74 l 0.75,0.56 -2.29,1.11 -1.35,1.36 -1,0.68 0.93,2.16 2.41,1.24 2.16,-0.44 3.43,-0.17 c 0,0 3.93,0.79 4.11,0.92 0.18,0.13 -1.13,0.55 -1.13,0.55 l -1.53,0.43 -0.86,0.56 -1.46,-0.74 a 3.78,3.78 0 0 0 -2,-0.68 4.09,4.09 0 0 0 -1.67,0.74 l 0.93,1.42 1.29,0.87 c 0,0 -0.55,1.6 -0.92,1.54 -0.37,-0.06 -1,-1.17 -1,-1.17 l -1.43,-0.56 -0.92,0.56 0.12,1.36 -0.4,1.92 -1.54,1 -1.12,0.87 -1.48,-0.87 -1.91,0.56 -3.34,-0.19 -0.74,0.68 -1.18,-0.49 c 0,0 -2.9,0.12 -3.09,0.18 a 10.62,10.62 0 0 1 -1.91,-0.86 l -0.74,-1.67 0.92,-1.11 -0.43,-0.5 -0.37,-0.92 0.62,-0.75 -0.93,-0.24 -1.54,1.54 -0.07,1.49 c 0,0 0.81,1.42 0.87,1.6 a 10.91,10.91 0 0 1 0.06,1.3 l -1.54,0.62 -1.67,0.49 0.31,0.62 1.73,0.31 -0.56,1 -1,0.06 -0.49,1.24 -0.31,0.68 -1.36,-0.37 0.06,-0.87 0.06,-1.11 -0.55,-0.56 -0.81,0.87 -0.86,1.11 -2,0.37 -0.93,0.74 -0.62,1.36 -1.48,0.68 -1.17,0.74 -1.8,-0.92 -0.24,0.43 0.37,0.92 -0.43,0.5 -2.35,-0.19 -1.3,-0.18 -0.19,1.73 2.29,0.37 1.11,1 c 0,0 0.87,1.05 1.05,1.05 0.18,0 1.43,0.31 1.43,0.31 l -0.5,2.72 -1.11,2.53 -4.64,-0.06 -5.06,-0.12 -1.61,0.61 -0.5,1.42 0.44,1.49 -0.9,2.79 -0.37,1.49 A 7,7 0 0 0 245,79 c 0.13,0.18 0.87,1.48 0.87,1.48 l -0.56,2.1 1.67,0.5 2.78,0.18 1.48,0.81 1.12,0.18 1.85,-0.8 2.78,-0.37 2.6,-2.17 -0.43,-2.65 1.6,-2 3.4,-2.16 1.48,-0.5 -0.18,-2.22 2,-1.18 2,0.68 1.36,-0.74 4.18,-1.28 4.14,3.84 5.68,3.89 c 0,0 1.18,2.35 1.24,2.53 a 7.8,7.8 0 0 1 -0.87,1.61 H 282 L 280.8,81 c 0,0 0.37,0.92 0.61,0.92 0.24,0 2.79,1.18 2.79,1.18 l 0.8,0.62 0.43,-0.13 -0.06,-1.17 0.25,-1.11 0.86,0.12 a 7.77,7.77 0 0 0 0.93,-1.24 17.93,17.93 0 0 1 0.86,-1.6 l -0.68,-1.3 0.38,-0.87 1,0.13 0.12,1.29 h 0.37 l -0.12,-1.6 -1,-0.62 -1.34,-0.89 -0.93,-1.35 -1.61,-0.44 -1.85,-1.3 -0.43,-1.48 -1.73,-0.86 -0.45,-1.36 0.5,-1.42 1.11,-0.19 0.06,1.36 1.11,0.37 0.75,-0.43 1.11,2 2.28,1.29 1.8,1 1.11,0.13 1.85,2 0.44,2.59 3.46,3.59 0.49,2.53 2.47,1.73 0.68,-0.56 -0.37,-1.6 1.36,-0.74 -0.43,-1.12 -1.37,-0.47 -0.56,-1.11 0.25,-1.8 -0.8,-0.92 0.74,0.12 0.55,0.68 0.87,-1.17 1.48,0.06 1.49,0.62 1.11,1.52 1.11,1.73 c 0,0 -0.74,0.43 -0.8,0.62 a 5.76,5.76 0 0 0 0.62,1.36 l 1.42,1.29 1.11,1.56 2.22,-0.06 0.25,1 1.61,0.18 1.54,-0.37 0.44,-1 0.68,0.93 1.79,0.62 1.54,-0.12 1.3,-1.43 1.17,0.5 0.87,0.55 -0.31,1.24 0.77,2.54 -1.12,2.57 v 3.36 H 313 l -2.56,1 -4.15,-2.07 -2.72,0.32 -4.65,-1.68 h -3.68 l -1.12,1 0.64,1.76 -1.44,1.44 -3.69,-2.24 -2.88,0.32 -1.12,-1.92 -4.33,-1.28 -3,-1.45 -2.3,-1.13 2.72,-3.2 -0.8,-2.72 -1.92,-1.13 -11.38,1.29 -4.48,1.76 -2.89,0.16 -3,1.12 -3.68,-0.8 -2.41,2.88 -2.88,1.92 -2.6,5.45 0.68,2.4 -3.36,3.21 -3.36,1.28 -1.6,3 c 0,0 -3.53,7.85 -3.85,8.49 -0.32,0.64 0,4.65 0,4.65 l 1.44,4.64 -3.36,7.85 1.28,3.85 1.76,3.52 4.65,6.57 -0.14,3.3 9.58,7.29 6.42,-2.58 6.18,1.96 7.68,-4.16 c 0,0 2.57,0 3.37,1.44 0.8,1.44 1.28,2.72 4.16,2.72 2.88,0 4.33,3.21 4.33,3.21 l -1.28,3.68 0.64,1.92 -1.28,3 3,6.24 2.24,4.81 2.09,4.65 0.48,5.92 -0.48,3.37 -3.69,6.41 1.12,9.93 1.28,2.24 -0.48,1.6 2.25,2.41 1.44,5.6 -1.28,5.29 1.92,4 c 0,0 1.76,4.33 1.92,4.81 0.16,0.48 1.28,2.08 1.12,2.88 -0.16,0.8 -0.64,2.89 -0.64,2.89 l 0.64,3.2 h 8.17 l 3.85,-1.28 9.45,-9.61 a 33.38,33.38 0 0 0 2.4,-3.21 c 0.16,-0.48 1.44,-6.4 1.44,-6.4 l 6.73,-2.73 v -5.23 l -1.44,-4.17 3.52,-3.36 9.46,-5.45 0.8,-4.17 v -7.2 l -1.77,-5.45 0.48,-3.36 -1.64,-1.45 3.05,-4.48 1.12,-5.93 4.48,-2.72 1,-2.73 8.17,-8.47 2.57,-8.06 2.4,-4.45 v -4.81 l -2.24,-0.8 -2.57,2.08 -3.52,0.32 -3.68,1 -3.05,-1.93 0.32,-2.4 -3.84,-4.32 -3.85,-2.25 -1.76,-5.76 -3.76,-3.58 -0.32,-4.48 -2.73,-4 -3.36,-7.52 -3.53,-3.52 -0.32,-2.89 1.45,0.65 1.6,1.28 0.64,2.4 c 1.28,0 1.76,-2.4 1.76,-2.4 l 1.12,2.4 1.12,3 3.53,5.29 1.92,0.32 2.24,4.65 -0.16,2.08 6.41,6.57 1.12,6.08 1.12,2.73 2.09,2.08 9.61,-2.56 1.76,-1.61 4.16,-1.28 v -1.92 l 4.81,-3.2 2,-3.72 1.16,-1.89 1.61,-2.24 -2.65,-3.65 -3.7,-3.13 -1.18,-3 -1.36,0.32 -1,2.88 -3.68,1 -1.92,-1.28 -0.64,-2.72 -1.28,0.32 -1.93,-3.53 -1.76,-1 -2.24,-3.68 1.6,-1.77 z m -75,-23.58 0.34,-1.53 v -2.2 a 2.47,2.47 0 0 0 -1.23,-0.59 1.34,1.34 0 0 0 -0.89,0.34 v 2.45 a 4.55,4.55 0 0 1 0,1.53 z m 0,-6.61 a 1,1 0 0 0 -1.19,-1.1 l -0.59,1.69 0.59,1.27 h 1.19 z m -43.7,-43.74 h 6 l 3.27,-4.71 h 7.53 l 1.21,-3 4.63,-2.45 c 2.19,-1.91 0,-5.37 0,-5.37 l -9.44,-1.18 -9.38,1.2 -13.64,-2.54 -8.41,3.82 c 0,0 -6.05,3.27 -6.87,3 a 29.17,29.17 0 0 0 -4.91,0 c 0,0 3,2.72 4.36,3 a 9.87,9.87 0 0 0 3,0 c 0,0 0,2.66 0.55,3.27 1.91,2.19 -2,3.82 -2,3.82 v 2.58 c 0,0 0.43,4.87 1.24,4.65 0.81,-0.22 2.14,2.59 2.14,2.59 l 2.51,2.73 h 4.59 l 5.73,-6.82 5.64,-2.45 z m 117.85,163.14 -0.74,-2 -0.85,0.84 -0.74,1.7 -1.69,1 -0.74,2.23 -1.06,2.64 -4.13,1.27 -1.8,3.07 -0.42,5.08 -1.48,2.52 -1.69,1.8 0.63,3 1.17,1.38 -1.17,1.58 1.17,1 h 3.91 l 2.22,-3.28 c 0,0 1.8,-3.81 1.8,-4.13 0,-0.32 0.85,-3.81 0.85,-3.81 l 3.06,-4 V 198 h 2.12 l -0.63,-3.92 z m -213.61,-81.15 -4.64,-1.58 c 0,0 -1.29,0.18 -2.8,0.54 a 16.83,16.83 0 0 0 -3.24,1 l 6.58,2.24 h 2.66 l 4.44,3.82 h 3 c 0,0 2.45,-1.09 1.63,-3 l -3.81,-1.37 z"
       id="path863" />
  </g>
  <path
     class="cls-8"
     d="M 166.04827,269.00001 A 151.41,151.41 0 0 1 21.048268,74.340006 151.34,151.34 0 1 0 296.34827,194.65001 a 151.23,151.23 0 0 1 -130.3,74.35 z"
     id="path867" />
  <ellipse
     class="cls-3"
     cx="153.54826"
     cy="356.16"
     rx="4.0900002"
     ry="2.3599999"
     id="ellipse1050" />
</svg>
