<?xml version="1.0" encoding="UTF-8" standalone="no"?>
<svg
   xmlns:dc="http://purl.org/dc/elements/1.1/"
   xmlns:cc="http://creativecommons.org/ns#"
   xmlns:rdf="http://www.w3.org/1999/02/22-rdf-syntax-ns#"
   xmlns:svg="http://www.w3.org/2000/svg"
   xmlns="http://www.w3.org/2000/svg"
   xmlns:sodipodi="http://sodipodi.sourceforge.net/DTD/sodipodi-0.dtd"
   xmlns:inkscape="http://www.inkscape.org/namespaces/inkscape"
   viewBox="0 0 222.55631 184.29483"
   version="1.1"
   id="svg1377"
   sodipodi:docname="1.svg"
   inkscape:version="1.0.1 (c497b03c, 2020-09-10)"
   width="222.5563"
   height="184.29483">
  <metadata
     id="metadata1381">
    <rdf:RDF>
      <cc:Work
         rdf:about="">
        <dc:format>image/svg+xml</dc:format>
        <dc:type
           rdf:resource="http://purl.org/dc/dcmitype/StillImage" />
        <dc:title>Cloud_database_SVG</dc:title>
      </cc:Work>
    </rdf:RDF>
  </metadata>
  <sodipodi:namedview
     pagecolor="#ffffff"
     bordercolor="#666666"
     borderopacity="1"
     objecttolerance="10"
     gridtolerance="10"
     guidetolerance="10"
     inkscape:pageopacity="0"
     inkscape:pageshadow="2"
     inkscape:window-width="1349"
     inkscape:window-height="694"
     id="namedview1379"
     showgrid="false"
     inkscape:zoom="0.81391066"
     inkscape:cx="246.97899"
     inkscape:cy="87.469146"
     inkscape:window-x="173"
     inkscape:window-y="109"
     inkscape:window-maximized="0"
     inkscape:current-layer="svg1377"
     inkscape:document-rotation="0"
     fit-margin-top="0"
     fit-margin-left="0"
     fit-margin-right="0"
     fit-margin-bottom="0" />
  <defs
     id="defs847">
    <style
       id="style833">.cls-1{fill:none;}.cls-2{clip-path:url(#clip-path);}.cls-3{fill:#d3d3dd;}.cls-4{fill:#e0dee9;}.cls-5{fill:#eaeaf4;}.cls-6{fill:#2a313f;}.cls-7{fill:#9052fe;}.cls-8{opacity:0.4;isolation:isolate;}.cls-9{clip-path:url(#clip-path-3);}.cls-10{fill:#d6d8e5;}.cls-11{clip-path:url(#clip-path-4);}.cls-12{fill:#3a2c6d;}.cls-13{fill:#ffcea9;}.cls-14{fill:#f4f4f4;}.cls-15{fill:#38226d;}.cls-16{fill:#9c73ff;}.cls-17{fill:#ff7b7b;}.cls-18{fill:#ededed;}.cls-19{fill:#8c50ff;}.cls-20{fill:#bfbfbf;}.cls-21{fill:#e5e5e5;}.cls-22{clip-path:url(#clip-path-5);}</style>
    <clipPath
       id="clip-path"
       transform="translate(-28.33 0)">
      <rect
         class="cls-1"
         width="500"
         height="500"
         id="rect835"
         x="0"
         y="0" />
    </clipPath>
    <clipPath
       id="clip-path-3"
       transform="translate(-28.33 0)">
      <rect
         class="cls-1"
         x="375.23999"
         y="440.37"
         width="36.549999"
         height="22.549999"
         id="rect838" />
    </clipPath>
    <clipPath
       id="clip-path-4"
       transform="translate(-28.33 0)">
      <rect
         class="cls-1"
         x="273.67001"
         y="353.35001"
         width="39.59"
         height="26.34"
         id="rect841" />
    </clipPath>
    <clipPath
       id="clip-path-5"
       transform="translate(-28.33 0)">
      <rect
         class="cls-1"
         x="321.47"
         y="473.66"
         width="39.59"
         height="26.34"
         id="rect844" />
    </clipPath>
  </defs>
  <title
     id="title849">Cloud_database_SVG</title>
  <path
     class="cls-5"
     d="m 199.73301,51.578526 0.37501,-0.16811 c 0.49137,-0.2069 0.98275,-0.38793 1.47413,-0.55603 h 0.0905 c 0.45259,-0.15518 0.90517,-0.28449 1.29311,-0.4138 h 0.28448 a 19.396569,19.396569 0 0 1 2.14655,-0.46551 h 0.15518 c 0.55603,-0.0776 1.11207,-0.12931 1.65517,-0.15518 h 0.32328 c 0.51724,0 1.02155,0 1.52586,0 h 0.32328 c 0.38793,0 0.76293,0.0776 1.13793,0.12931 h 0.34914 c 0.43965,0.0776 0.87931,0.18104 1.2931,0.29742 h 0.15517 a 10.538802,10.538802 0 0 1 1.07328,0.375 l 0.34914,0.15517 0.94396,0.45259 0.32328,0.1681 v 0 l -44.96125,-26.13364 -0.14224,-0.0776 -0.18103,-0.0905 -0.94397,-0.45258 -0.18103,-0.0905 -0.15518,-0.0647 c -0.36207,-0.14224 -0.72413,-0.27155 -1.0862,-0.375 h -0.12931 v 0 c -0.42673,-0.11638 -0.85345,-0.21982 -1.29311,-0.29741 h -0.12931 -0.21983 c -0.375,0 -0.75,-0.10345 -1.13793,-0.12931 h -0.21983 -0.10345 c -0.50431,0 -1.00862,0 -1.52586,0 h -0.11638 -0.2069 c -0.5431,0 -1.0862,0.0776 -1.65517,0.15517 h -0.12931 a 19.396569,19.396569 0 0 0 -2.14655,0.46552 h -0.16811 -0.11638 c -0.45258,0.12931 -0.90517,0.25862 -1.2931,0.41379 h -0.0905 c -0.49138,0.16811 -0.98276,0.34914 -1.47414,0.55604 h -0.11638 l -0.25862,0.12931 c -0.45258,0.19396 -0.9181,0.40086 -1.38362,0.63362 -0.15517,0.0776 -0.32328,0.14224 -0.47845,0.23276 -0.5819,0.28448 -1.16379,0.59483 -1.74569,0.94396 l 45.03883,26.17244 c 0.5819,-0.34914 1.1638,-0.65948 1.74569,-0.94396 l 0.47845,-0.23276 c 0.46552,-0.23276 0.91811,-0.43966 1.38363,-0.63362"
     id="path1059"
     style="stroke-width:1.2931" />
  <path
     class="cls-5"
     d="m 173.41834,41.906096 c 0.75,-0.3362 1.5,-0.64655 2.22414,-0.90517 h 0.10344 a 18.439671,18.439671 0 0 1 1.9138,-0.53017 q 0.5431,-0.14224 1.08621,-0.23276 a 12.788804,12.788804 0 0 1 1.2931,-0.2069 l 0.77586,-0.0776 q 0.85345,0 1.66811,0 h 0.375 a 15.168117,15.168117 0 0 1 1.91379,0.24568 l 0.46552,0.10345 a 13.745702,13.745702 0 0 1 1.42242,0.4138 l 0.43965,0.15517 a 11.340527,11.340527 0 0 1 1.69397,0.81466 l -44.90952,-26.25003 -0.14224,-0.0776 a 13.47415,13.47415 0 0 0 -1.29311,-0.63363 l -0.25862,-0.0905 -0.43965,-0.15518 -0.67242,-0.24569 -0.76293,-0.15517 -0.46552,-0.10345 h -0.24569 a 15.20691,15.20691 0 0 0 -1.56466,-0.19396 h -0.47844 c -0.40087,0 -0.81466,0 -1.29311,0 -0.14224,0 -0.28448,0 -0.43965,0 l -0.77587,0.0905 c -0.23276,0 -0.46551,0 -0.7112,0 l -0.64656,0.14224 q -0.5431,0.0905 -1.0862,0.23276 l -0.56897,0.11638 c -0.43966,0.11637 -0.89224,0.25862 -1.2931,0.41379 h -0.10345 c -0.50431,0.18103 -1.02156,0.375 -1.55173,0.59483 l -0.67241,0.29741 -0.63362,0.29741 c -0.7888,0.36207 -1.57759,0.76294 -2.37932,1.22845 -0.80172,0.46552 -1.93965,1.18966 -2.89655,1.87501 l 45.03883,26.17243 c 0.94397,-0.67241 1.9138,-1.2931 2.89656,-1.875 0.98276,-0.5819 1.59051,-0.86638 2.37931,-1.22845 l 0.63362,-0.28448"
     id="path1061"
     style="stroke-width:1.2931" />
  <path
     class="cls-5"
     d="m 130.8752,29.143156 0.68534,-0.29741 c 0.67242,-0.27156 1.29311,-0.53018 2.00431,-0.76294 l 0.375,-0.14224 c 0.7888,-0.25862 1.56466,-0.50431 2.34052,-0.7112 0.43966,-0.12931 0.89224,-0.23276 1.29311,-0.33621 l 0.65948,-0.15517 c 0.63362,-0.14225 1.29311,-0.24569 1.875,-0.34914 h 0.10345 c 0.62069,-0.0905 1.29311,-0.15517 1.83621,-0.21983 h 0.5819 1.07327 a 23.379331,23.379331 0 0 1 2.52156,0 h 0.43965 c 0.65949,0 1.29311,0.12931 1.96552,0.23276 l 0.60776,0.10345 a 19.668121,19.668121 0 0 1 2.19828,0.50431 h 0.0905 a 19.875018,19.875018 0 0 1 1.97845,0.69827 l 0.55603,0.23276 c 0.55604,0.24569 1.08621,0.50431 1.61638,0.7888 l 0.51724,0.27155 v 0 l -45.0259,-26.2112301 -0.23276,-0.12931 -0.28448,-0.14224 c -0.51724,-0.28449 -1.06035,-0.54311 -1.61638,-0.7888 l -0.27155,-0.14224 -0.25862,-0.0905 a 19.875018,19.875018 0 0 0 -1.97845,-0.69826999 h -0.0647 v 0 a 19.668121,19.668121 0 0 0 -2.22414,-0.53017 h -0.25862 -0.34914 c -0.64655,-0.10345 -1.2931,-0.18104 -1.96552,-0.23276 a 2.7543128,2.7543128 0 0 1 -0.32327,0 h -0.10345 a 23.637952,23.637952 0 0 0 -2.58621,0 h -0.23276 -0.82759 -0.58189 c -0.59483,0.0647 -1.21552,0.12931 -1.82328,0.21982 v 0 h -0.0905 c -0.62069,0.0905 -1.2931,0.2069 -1.875,0.34914 -0.23276,0 -0.45259,0.10345 -0.67241,0.15517 -0.21983,0.0517 -0.80173,0.18104 -1.20259,0.29741999 h -0.12931 c -0.77587,0.2069 -1.55173,0.45259 -2.34052,0.71121 l -0.375,0.14224 c -0.65949,0.23276 -1.29311,0.49138 -2.00431,0.76293 l -0.21983,0.0776 c -0.15517,0 -0.31035,0.15517 -0.46552,0.20689 -0.71121,0.31035 -1.42241,0.63362 -2.14655,0.98276 l -0.7888,0.38793 c -0.93103,0.46552 -1.86207,0.9569 -2.7931,1.5 -1.29311,0.73707 -2.58621,1.5388 -3.80173,2.37932 -0.43966,0.29741 -0.85345,0.63362 -1.2931,0.94396 -0.80173,0.56897 -1.61639,1.1379401 -2.40518,1.7456901 -0.50431,0.38794 -0.98276,0.81466 -1.47414,1.29311 -0.71121,0.56897 -1.42241,1.13793 -2.12069,1.74569 -0.69828,0.60776 -1.00862,0.94397 -1.52586,1.42242 -0.51725,0.47844 -1.29311,1.18965 -1.95259,1.82327 l -0.0905,0.0776 q -1.44828,1.46121 -2.87069,2.98707 l -0.77586,0.86638 c -0.36207,0.40086 -0.72414,0.78879 -1.08621,1.20259 -0.36207,0.41379 -0.46552,0.56896 -0.69828,0.85345 -0.67241,0.80172 -1.2931,1.60345 -1.99138,2.4181 -0.25862,0.33621 -0.5431,0.64656 -0.81466,0.99569 -0.27155,0.34914 -0.375,0.51725 -0.56896,0.77587 -0.49138,0.63362 -0.9569,1.2931 -1.43535,1.93965 -0.29741,0.4138 -0.60776,0.80173 -0.89224,1.21552 -0.28448,0.4138 -0.38793,0.59483 -0.59483,0.87931 -0.38793,0.56897 -0.77586,1.15087 -1.15086,1.73276 -0.375,0.5819 -0.5431,0.77587 -0.80173,1.17673 l -0.69827,1.15086 -0.98276,1.60345 -0.56897,0.94397 c -0.32327,0.5431 -0.60776,1.0862 -0.9181,1.62931 l -0.81466,1.47414 -0.32327,0.5819 c -0.43966,0.82758 -0.85345,1.6681 -1.29311,2.50862 l -0.50431,1.00862 -0.10345,0.2069 c -0.60776,1.2931 -1.17672,2.50862 -1.73276,3.77586 l -0.0776,0.19397 c -0.15518,0.34914 -0.28449,0.71121 -0.43966,1.07327 -0.36207,0.87932 -0.73707,1.7457 -1.07328,2.58621 -0.0776,0.18104 -0.12931,0.34914 -0.19396,0.53018 -0.21983,0.56896 -0.4138,1.15086 -0.62069,1.71983 -0.2069,0.56896 -0.46552,1.2931 -0.67242,1.86207 -0.0776,0.25862 -0.14224,0.50431 -0.21982,0.75 -0.23276,0.7112 -0.43966,1.42241 -0.65949,2.13362 -0.21983,0.71121 -0.3362,1.04741 -0.47845,1.57759 -0.0647,0.24569 -0.11638,0.49138 -0.18103,0.75 -0.24569,0.93103 -0.46552,1.84914 -0.68535,2.78017 -0.11638,0.49138 -0.25862,0.98276 -0.36207,1.46121 -0.10344,0.47845 -0.1681,0.80173 -0.24569,1.20259 -0.45258,0.25862 -0.9181,0.49138 -1.38362,0.76293 -0.98276,0.56897 -1.93965,1.18966 -2.89655,1.82328 l -0.49138,0.32327 c -0.91811,0.62069 -1.82328,1.29311 -2.71552,1.96552 l -0.51724,0.4138 c -0.90518,0.7112 -1.79742,1.43534 -2.67673,2.2112 l -0.23276,0.2069 c -0.85345,0.75 -1.68103,1.5388 -2.50862,2.34052 l -0.25862,0.23276 -0.15517,0.1681 c -0.63363,0.62069 -1.29311,1.29311 -1.87501,1.9138 l -0.0905,0.10345 c -0.5819,0.63362 -1.1638,1.2931 -1.73276,1.91379 l -0.15518,0.18104 -0.20689,0.24569 c -0.91811,1.07327 -1.82328,2.17241 -2.70259,3.29741 l -0.0776,0.0905 -0.19396,0.27155 c -0.69828,0.90517 -1.38363,1.83621 -2.04311,2.76725 l -0.2069,0.28448 a 0.53017288,0.53017288 0 0 0 -0.0905,0.14224 c -0.64656,0.90517 -1.29311,1.83621 -1.86207,2.76724 l -0.18104,0.27156 a 4.3577625,4.3577625 0 0 0 -0.24569,0.41379 q -0.73707,1.15086 -1.43534,2.32759 a 3.375003,3.375003 0 0 1 -0.21983,0.36207 l -0.0776,0.14224 c -0.53017,0.90517 -1.03448,1.82328 -1.52586,2.74138 l -0.11638,0.21983 -0.23276,0.45258 q -0.5819,1.099144 -1.125,2.211214 l -0.23276,0.46552 a 2.5862092,2.5862092 0 0 1 -0.12931,0.27155 c -0.43966,0.94397 -0.87931,1.875 -1.2931,2.8319 v 0.0776 l -0.11638,0.31034 c -0.375,0.85345 -0.72414,1.7069 -1.06035,2.58621 l -0.1681,0.42673 c 0,0.10345 -0.0776,0.23276 -0.12931,0.34914 -0.38794,1.00862 -0.75,2.03017 -1.09914,3.05172 v 0 l -0.0647,0.18104 c -0.34914,1.06034 -0.65948,2.12069 -0.96983,3.1681 a 3.6206929,3.6206929 0 0 1 -0.11638,0.40087 1.7586222,1.7586222 0 0 1 0,0.21982 c -0.3362,1.21552 -0.63362,2.44397 -0.90517,3.67242 l -0.0776,0.32328 c 0,0.1681 -0.0647,0.32327 -0.0905,0.47844 -0.10345,0.47845 -0.19397,0.96983 -0.27155,1.44828 -0.0776,0.47845 -0.12932,0.65949 -0.18104,0.99569 -0.0517,0.33621 -0.15517,0.98276 -0.23276,1.48707 0,0.23276 -0.0647,0.46552 -0.10345,0.69828 a 0.91810426,0.91810426 0 0 1 0,0.18103 c -0.12931,1.04742 -0.23276,2.10776 -0.31034,3.14225 v 0.67241 c 0,1.07328 -0.10345,2.14656 -0.10345,3.19397 0,7.97846 1.96552,14.3276 5.31466,18.76295 a 18.607775,18.607775 0 0 0 5.40518,4.83621 l 45.03883,26.15951 c -6.59483,-3.87932 -10.69398,-11.98708 -10.71984,-23.58623 0,-1.04742 0,-2.12069 0.10345,-3.19397 v -0.65948 c 0.0776,-1.04742 0.18104,-2.10776 0.31035,-3.15518 l 0.11638,-0.87931 c 0.0776,-0.50431 0.14224,-0.99569 0.23275,-1.48707 0.0905,-0.49138 0.11638,-0.65948 0.16811,-0.99569 0.0517,-0.33621 0.18103,-0.96983 0.28448,-1.44828 0,-0.27155 0.11638,-0.53017 0.1681,-0.80172 0.27156,-1.21552 0.56897,-2.44397 0.90518,-3.67242 0,-0.2069 0.11638,-0.41379 0.1681,-0.62069 0.31035,-1.06035 0.62069,-2.12069 0.96983,-3.16811 l 0.0776,-0.23276 c 0.3362,-1.03448 0.7112,-2.0431 1.09914,-3.06465 0.0905,-0.25862 0.19396,-0.51725 0.29741,-0.77587 0.33621,-0.85345 0.68534,-1.71983 1.04741,-2.58621 0.0647,-0.12931 0.11638,-0.25862 0.16811,-0.38793 0.41379,-0.95689 0.85345,-1.88793 1.2931,-2.8319 l 0.36207,-0.73707 q 0.54311,-1.09913 1.125,-2.2112 l 0.34914,-0.67242 c 0.49138,-0.9181 0.99569,-1.83621 1.52586,-2.72845 l 0.31035,-0.51724 c 0.45259,-0.78879 0.93103,-1.56466 1.42241,-2.34052 l 0.42673,-0.67241 c 0.59483,-0.93104 1.21552,-1.86208 1.86207,-2.78018 l 0.28448,-0.40086 c 0.67242,-0.94397 1.35776,-1.875 2.05604,-2.78018 l 0.27155,-0.36207 c 0.87931,-1.125 1.78448,-2.22414 2.70259,-3.29741 l 0.36207,-0.42673 c 0.56896,-0.64655 1.15086,-1.2931 1.73276,-1.90086 l 0.0905,-0.11638 c 0.62069,-0.64655 1.2931,-1.29311 1.875,-1.9138 l 0.41379,-0.40086 c 0.82759,-0.80172 1.66811,-1.59052 2.50862,-2.34052 l 0.23276,-0.20689 q 1.29311,-1.15087 2.67673,-2.211214 l 0.51724,-0.4138 c 0.89224,-0.68534 1.79742,-1.2931 2.71552,-1.96552 l 0.47845,-0.32327 c 0.9569,-0.63362 1.92673,-1.29311 2.89655,-1.81035 l 1.39656,-0.77586 c 0.18103,-0.87931 0.40086,-1.77155 0.60776,-2.6638 0.20689,-0.89224 0.43965,-1.84914 0.68534,-2.78017 0.24569,-0.93104 0.42673,-1.55173 0.65948,-2.32759 0.23276,-0.77586 0.42673,-1.42241 0.65949,-2.13362 0.23276,-0.71121 0.5819,-1.73276 0.89224,-2.58621 0.2069,-0.5819 0.40086,-1.16379 0.62069,-1.73276 0.40086,-1.06035 0.82759,-2.10776 1.2931,-3.15518 0.15518,-0.36207 0.28449,-0.73707 0.43966,-1.0862 0.60776,-1.40949 1.29311,-2.79311 1.9138,-4.17673 l 0.51724,-1.00862 c 0.50431,-1.03449 1.03448,-2.06897 1.59052,-3.09052 0.27155,-0.49138 0.5431,-0.98276 0.82758,-1.47414 q 0.72414,-1.29311 1.47414,-2.58621 c 0.32328,-0.54311 0.64655,-1.08621 0.98276,-1.61638 0.49138,-0.7888 0.98276,-1.56466 1.5,-2.32759 0.51724,-0.76293 0.76293,-1.16379 1.15087,-1.73276 0.38793,-0.56897 0.85344,-1.3319 1.38362,-1.97845 0.53017,-0.64655 0.94396,-1.29311 1.43534,-1.95259 0.49138,-0.65948 0.91811,-1.17672 1.38363,-1.75862 0.65948,-0.81466 1.2931,-1.61638 1.99138,-2.41811 0.69827,-0.80172 1.17672,-1.38362 1.78448,-2.05603 0.25862,-0.29742 0.51724,-0.5819 0.78879,-0.86638 q 1.43535,-1.57759 2.94828,-3.06466 c 0.64656,-0.63362 1.29311,-1.29311 1.97845,-1.84914 0.68535,-0.55604 0.98276,-0.94397 1.5,-1.38362 0.51725,-0.43966 1.42242,-1.18966 2.13363,-1.78449 0.49138,-0.40086 0.96983,-0.81465 1.46121,-1.20258 0.78879,-0.60776 1.60345,-1.17673 2.4181,-1.75863 l 1.29311,-0.93103 c 1.2931,-0.84052 2.5862,-1.64224 3.80172,-2.37931 0.93104,-0.54311 1.86207,-1.03449 2.79311,-1.50001 l 0.78879,-0.38793 c 0.72414,-0.34913 1.43535,-0.67241 2.14656,-0.96983"
     id="path1063"
     style="stroke-width:1.2931" />
  <path
     class="cls-3"
     d="m 125.14674,32.000916 c 20.3664,-11.75432 37.50004,-5.59914 42.41383,13.29312 a 33.426754,33.426754 0 0 1 2.89656,-1.875 c 12.84053,-7.40949 23.50864,-2.84483 25.66812,10.00862 14.79312,-8.56035 26.43106,-1.84913 26.43106,14.61209 0,15.28449 -9.91811,33.620724 -22.81036,42.866414 -1.06035,0.75 -2.06897,1.42242 -3.10346,2.01725 a 30.750027,30.750027 0 0 1 -2.97414,1.51293 l -111.90527,64.8104 c -20.31467,11.72846 -36.82762,2.32759 -36.89227,-21.02588 -0.0647,-23.35347 16.33191,-51.72418 36.64658,-63.478504 0.47845,-0.28449 0.93104,-0.51725 1.39656,-0.77587 4.81035,-24.40088 21.85346,-50.22418 42.18107,-61.96557"
     id="path1065"
     style="stroke-width:1.2931" />
</svg>
