<?xml version="1.0" encoding="UTF-8" standalone="no"?>
<svg
   xmlns:figma="http://www.figma.com/figma/ns"
   xmlns:dc="http://purl.org/dc/elements/1.1/"
   xmlns:cc="http://creativecommons.org/ns#"
   xmlns:rdf="http://www.w3.org/1999/02/22-rdf-syntax-ns#"
   xmlns:svg="http://www.w3.org/2000/svg"
   xmlns="http://www.w3.org/2000/svg"
   xmlns:sodipodi="http://sodipodi.sourceforge.net/DTD/sodipodi-0.dtd"
   xmlns:inkscape="http://www.inkscape.org/namespaces/inkscape"
   viewBox="0 0 335.67566 308.79167"
   version="1.1"
   id="svg1327"
   sodipodi:docname="2.svg"
   inkscape:version="1.0.1 (c497b03c, 2020-09-10)"
   width="335.67566"
   height="308.79166">
  <metadata
     id="metadata1331">
    <rdf:RDF>
      <cc:Work
         rdf:about="">
        <dc:format>image/svg+xml</dc:format>
        <dc:type
           rdf:resource="http://purl.org/dc/dcmitype/StillImage" />
        <dc:title>Web_hosting_SVG</dc:title>
      </cc:Work>
    </rdf:RDF>
  </metadata>
  <sodipodi:namedview
     pagecolor="#ffffff"
     bordercolor="#666666"
     borderopacity="1"
     objecttolerance="10"
     gridtolerance="10"
     guidetolerance="10"
     inkscape:pageopacity="0"
     inkscape:pageshadow="2"
     inkscape:window-width="1357"
     inkscape:window-height="701"
     id="namedview1329"
     showgrid="false"
     inkscape:zoom="0.98691435"
     inkscape:cx="142.90769"
     inkscape:cy="115.1505"
     inkscape:window-x="0"
     inkscape:window-y="25"
     inkscape:window-maximized="0"
     inkscape:current-layer="svg1327"
     inkscape:document-rotation="0"
     fit-margin-top="0"
     fit-margin-left="0"
     fit-margin-right="0"
     fit-margin-bottom="0" />
  <defs
     id="defs835">
    <style
       id="style833">.cls-1,.cls-7{fill:#d6d8e5;}.cls-1{opacity:0.4;}.cls-2{fill:#d5d6e0;}.cls-3{fill:#e9eaf4;}.cls-4{fill:#dfe0ea;}.cls-5{fill:#2b303f;}.cls-6{fill:#8c50ff;}.cls-8{fill:#edf0f9;}.cls-9{fill:#e2e5f2;}.cls-10{fill:#e5e5e5;}.cls-11{fill:#f4f4f4;}.cls-12{fill:#bfbfbf;}.cls-13{fill:#dceeff;}.cls-14{fill:#dbdbdb;}.cls-15{fill:#1e212d;}.cls-16{fill:#ffcea9;}.cls-17{fill:#ededed;}.cls-18{fill:#38226d;}.cls-19{fill:#9c73ff;}.cls-20{fill:#3a2c6d;}</style>
  </defs>
  <title
     id="title837">Web_hosting_SVG</title>
  <polygon
     class="cls-1"
     points="249.36,272.19 251.14,273.21 107.37,356.22 106.48,354.68 "
     id="polygon839"
     transform="translate(0.00186273,-119.51243)" />
  <path
     class="cls-1"
     d="m 49.311863,306.76757 -45.8000003,-26.45 c -5.2,-3 -4.55,-8.23 1.45,-11.69 l 23.2500003,-13.43 c 6,-3.46 15.07,-3.84 20.26,-0.84 l 45.8,26.45 c 5.2,3 4.54,8.23 -1.45,11.69 l -23.25,13.43 c -6,3.46 -15.07,3.84 -20.26,0.84 z"
     id="path1155" />
  <path
     class="cls-7"
     d="m 118.10186,273.76757 v -63.94 l -97.749997,-11 v 64.34 0 c -0.07,2 1.06,3.84 3.48,5.24 l 45.8,26.44 c 5.19,3 14.27,2.62 20.26,-0.84 l 23.249997,-13.42 c 3.38,-2 5.06,-4.46 5,-6.82 z"
     id="path1157" />
  <path
     class="cls-8"
     d="m 118.08186,216.80757 v -7 h -7.52 l -41.759997,-24.1 c -5.19,-3 -14.26,-2.62 -20.26,0.84 l -23.25,13.42 a 13.81,13.81 0 0 0 -1.2,0.78 l -3.74,-1.92 c 0,0 0,7.37 0,7.62 v 0 c -0.05,2 1.08,3.83 3.49,5.22 l 45.8,26.44 c 5.19,3 14.27,2.63 20.26,-0.84 l 23.249997,-13.42 c 3.48,-2 5.15,-4.61 4.93,-7 z"
     id="path1159" />
  <path
     class="cls-9"
     d="m 69.631863,230.48757 -45.8,-26.44 c -5.19,-3 -4.54,-8.23 1.46,-11.7 l 23.25,-13.42 c 6,-3.46 15.07,-3.84 20.26,-0.84 l 45.799997,26.44 c 5.19,3 4.54,8.24 -1.46,11.7 l -23.249997,13.44 c -5.99,3.47 -15.07,3.82 -20.26,0.82 z"
     id="path1161" />
  <g
     id="_Группа_"
     data-name="&lt;Группа&gt;"
     transform="translate(0.00186273,-119.51243)">
    <path
       id="_Контур_"
       data-name="&lt;Контур&gt;"
       class="cls-10"
       d="m 93.16,326 v 0 A 2.25,2.25 0 0 1 92,328 l -21.1,12.18 a 2.26,2.26 0 0 1 -2.25,0 L 39.13,323.07 A 2.24,2.24 0 0 1 38,321.12 V 321 Z" />
    <path
       id="_Контур_2"
       data-name="&lt;Контур&gt;"
       class="cls-10"
       d="m 92,328 -21.1,12.18 a 2.24,2.24 0 0 1 -1.12,0.3 V 326 H 93.16 A 2.25,2.25 0 0 1 92,328 Z" />
    <g
       id="_Группа_2"
       data-name="&lt;Группа&gt;">
      <path
         id="_Контур_3"
         data-name="&lt;Контур&gt;"
         class="cls-11"
         d="M 70.61,339 A 1.59,1.59 0 0 1 69,339 L 38.3,321.29 a 0.43,0.43 0 0 1 0,-0.82 L 60.93,307.4 93.16,326 Z" />
    </g>
    <g
       id="_Группа_3"
       data-name="&lt;Группа&gt;">
      <polygon
         id="_Контур_4"
         data-name="&lt;Контур&gt;"
         class="cls-12"
         points="50.92,326.01 51.08,326.1 60.93,331.79 66.33,328.67 66.48,328.58 56.48,322.8 " />
      <polygon
         id="_Контур_5"
         data-name="&lt;Контур&gt;"
         class="cls-10"
         points="66.33,328.67 56.48,322.98 51.08,326.1 60.93,331.79 " />
    </g>
    <path
       class="cls-5"
       d="M 84.61,327.13 86,328 a 0.48,0.48 0 0 0 0.45,0 l 1.35,-0.78 c 0.14,-0.08 0.15,-0.19 0,-0.26 l -1.42,-0.82 a 0.48,0.48 0 0 0 -0.45,0 l -1.35,0.78 c -0.07,0.08 -0.08,0.14 0.03,0.21 z"
       id="path1170" />
    <path
       class="cls-5"
       d="m 82.6,326 1.42,0.82 a 0.5,0.5 0 0 0 0.46,0 l 1.35,-0.78 c 0.14,-0.08 0.15,-0.2 0,-0.26 l -1.42,-0.82 a 0.48,0.48 0 0 0 -0.45,0 l -1.35,0.78 c -0.11,0.05 -0.12,0.16 -0.01,0.26 z"
       id="path1172" />
    <path
       class="cls-5"
       d="m 80.59,324.81 1.42,0.82 a 0.5,0.5 0 0 0 0.46,0 l 1.35,-0.78 c 0.13,-0.08 0.15,-0.2 0,-0.26 l -1.42,-0.82 a 0.48,0.48 0 0 0 -0.45,0 l -1.35,0.78 c -0.11,0.08 -0.12,0.19 -0.01,0.26 z"
       id="path1174" />
    <path
       class="cls-5"
       d="m 78.58,323.65 1.42,0.82 a 0.5,0.5 0 0 0 0.46,0 l 1.35,-0.78 c 0.13,-0.08 0.15,-0.2 0,-0.26 l -1.42,-0.82 a 0.48,0.48 0 0 0 -0.45,0 l -1.35,0.78 c -0.11,0.07 -0.12,0.19 -0.01,0.26 z"
       id="path1176" />
    <path
       class="cls-5"
       d="m 76.57,322.49 1.42,0.82 a 0.51,0.51 0 0 0 0.45,0 l 1.36,-0.78 c 0.13,-0.08 0.15,-0.2 0,-0.26 l -1.42,-0.82 a 0.51,0.51 0 0 0 -0.45,0 l -1.36,0.79 c -0.1,0.06 -0.11,0.18 0,0.25 z"
       id="path1178" />
    <path
       class="cls-5"
       d="m 74.56,321.33 1.42,0.82 a 0.51,0.51 0 0 0 0.45,0 l 1.36,-0.78 c 0.13,-0.08 0.15,-0.2 0,-0.27 l -1.42,-0.82 a 0.55,0.55 0 0 0 -0.45,0 l -1.36,0.79 c -0.1,0.07 -0.11,0.19 0,0.26 z"
       id="path1180" />
    <path
       class="cls-5"
       d="M 72.55,320.17 74,321 a 0.55,0.55 0 0 0 0.45,0 l 1.36,-0.79 c 0.13,-0.07 0.15,-0.19 0,-0.26 l -1.42,-0.82 a 0.55,0.55 0 0 0 -0.45,0 l -1.36,0.78 c -0.13,0.09 -0.15,0.19 -0.03,0.26 z"
       id="path1182" />
    <path
       class="cls-5"
       d="m 70.54,319 1.42,0.82 a 0.55,0.55 0 0 0 0.45,0 l 1.36,-0.79 c 0.13,-0.07 0.15,-0.19 0,-0.26 l -1.42,-0.82 a 0.51,0.51 0 0 0 -0.45,0 l -1.36,0.78 c -0.1,0.09 -0.12,0.21 0,0.27 z"
       id="path1184" />
    <path
       class="cls-5"
       d="m 68.53,317.84 1.42,0.82 a 0.51,0.51 0 0 0 0.45,0 l 1.36,-0.79 c 0.13,-0.07 0.15,-0.19 0,-0.26 l -1.42,-0.82 a 0.51,0.51 0 0 0 -0.45,0 l -1.36,0.78 c -0.1,0.09 -0.12,0.21 0,0.27 z"
       id="path1186" />
    <path
       class="cls-5"
       d="m 66.52,316.68 1.42,0.82 a 0.48,0.48 0 0 0 0.45,0 l 1.36,-0.78 c 0.13,-0.08 0.14,-0.19 0,-0.26 l -1.42,-0.82 a 0.48,0.48 0 0 0 -0.45,0 l -1.36,0.78 c -0.1,0.08 -0.12,0.2 0,0.26 z"
       id="path1188" />
    <path
       class="cls-5"
       d="m 64.51,315.52 1.42,0.82 a 0.48,0.48 0 0 0 0.45,0 l 1.36,-0.78 c 0.13,-0.08 0.14,-0.19 0,-0.26 l -1.42,-0.82 a 0.48,0.48 0 0 0 -0.45,0 l -1.36,0.78 c -0.1,0.08 -0.12,0.2 0,0.26 z"
       id="path1190" />
    <path
       class="cls-5"
       d="m 62.5,314.36 1.42,0.82 a 0.48,0.48 0 0 0 0.45,0 l 1.35,-0.78 c 0.14,-0.08 0.15,-0.19 0,-0.26 l -1.42,-0.82 a 0.5,0.5 0 0 0 -0.46,0 l -1.35,0.78 c -0.09,0.08 -0.11,0.19 0.01,0.26 z"
       id="path1192" />
    <path
       class="cls-5"
       d="m 60.49,313.2 1.42,0.82 a 0.48,0.48 0 0 0 0.45,0 l 1.35,-0.78 c 0.14,-0.08 0.15,-0.19 0,-0.26 l -1.42,-0.82 a 0.5,0.5 0 0 0 -0.46,0 l -1.35,0.78 c -0.09,0.06 -0.11,0.19 0.01,0.26 z"
       id="path1194" />
    <path
       class="cls-5"
       d="m 57.51,311.48 2.39,1.38 a 0.48,0.48 0 0 0 0.45,0 l 1.35,-0.78 c 0.14,-0.08 0.15,-0.2 0,-0.26 l -2.39,-1.38 a 0.48,0.48 0 0 0 -0.45,0 l -1.36,0.78 c -0.09,0.08 -0.11,0.19 0.01,0.26 z"
       id="path1196" />
    <path
       class="cls-5"
       d="m 79.68,326.53 1.42,0.82 a 0.53,0.53 0 0 0 0.46,0 l 1.35,-0.79 c 0.13,-0.07 0.15,-0.19 0,-0.26 l -1.42,-0.82 a 0.51,0.51 0 0 0 -0.45,0 l -1.35,0.78 c -0.11,0.09 -0.12,0.21 -0.01,0.27 z"
       id="path1198" />
    <path
       class="cls-5"
       d="m 77.67,325.37 1.42,0.82 a 0.48,0.48 0 0 0 0.45,0 l 1.36,-0.78 c 0.13,-0.08 0.15,-0.19 0,-0.26 l -1.42,-0.82 a 0.48,0.48 0 0 0 -0.45,0 l -1.36,0.78 c -0.1,0.08 -0.12,0.19 0,0.26 z"
       id="path1200" />
    <path
       class="cls-5"
       d="m 75.65,324.21 1.43,0.82 a 0.48,0.48 0 0 0 0.45,0 l 1.35,-0.78 c 0.14,-0.08 0.15,-0.2 0,-0.26 l -1.43,-0.82 a 0.48,0.48 0 0 0 -0.45,0 l -1.35,0.78 c -0.1,0.05 -0.11,0.19 0,0.26 z"
       id="path1202" />
    <path
       class="cls-5"
       d="m 73.64,323.05 1.42,0.82 a 0.55,0.55 0 0 0 0.45,0 l 1.36,-0.79 c 0.13,-0.07 0.15,-0.19 0,-0.26 L 75.48,322 a 0.51,0.51 0 0 0 -0.45,0 l -1.36,0.78 c -0.13,0.08 -0.15,0.22 -0.03,0.27 z"
       id="path1204" />
    <path
       class="cls-5"
       d="m 71.64,321.89 1.42,0.82 a 0.5,0.5 0 0 0 0.46,0 l 1.35,-0.78 c 0.13,-0.08 0.15,-0.19 0,-0.26 l -1.42,-0.82 a 0.48,0.48 0 0 0 -0.45,0 l -1.35,0.78 c -0.11,0.08 -0.12,0.2 -0.01,0.26 z"
       id="path1206" />
    <path
       class="cls-5"
       d="m 69.63,320.73 1.42,0.82 a 0.48,0.48 0 0 0 0.45,0 l 1.36,-0.78 c 0.13,-0.08 0.14,-0.2 0,-0.26 l -1.42,-0.82 a 0.48,0.48 0 0 0 -0.45,0 l -1.36,0.78 c -0.1,0.08 -0.12,0.19 0,0.26 z"
       id="path1208" />
    <path
       class="cls-5"
       d="m 67.61,319.57 1.42,0.82 a 0.57,0.57 0 0 0 0.46,0 l 1.35,-0.78 c 0.14,-0.08 0.15,-0.2 0,-0.27 l -1.42,-0.82 a 0.55,0.55 0 0 0 -0.45,0 l -1.35,0.79 c -0.11,0.07 -0.12,0.19 -0.01,0.26 z"
       id="path1210" />
    <path
       class="cls-5"
       d="m 65.6,318.4 1.42,0.82 a 0.48,0.48 0 0 0 0.45,0 l 1.36,-0.78 c 0.13,-0.07 0.15,-0.19 0,-0.26 l -1.42,-0.82 a 0.48,0.48 0 0 0 -0.45,0 l -1.36,0.78 c -0.1,0.08 -0.12,0.2 0,0.26 z"
       id="path1212" />
    <path
       class="cls-5"
       d="m 63.59,317.24 1.42,0.82 a 0.48,0.48 0 0 0 0.45,0 l 1.35,-0.78 c 0.14,-0.08 0.15,-0.19 0,-0.26 l -1.42,-0.82 a 0.5,0.5 0 0 0 -0.46,0 l -1.35,0.78 c -0.1,0.08 -0.11,0.19 0.01,0.26 z"
       id="path1214" />
    <path
       class="cls-5"
       d="m 61.57,316.08 1.42,0.82 a 0.51,0.51 0 0 0 0.45,0 l 1.36,-0.78 c 0.13,-0.08 0.15,-0.2 0,-0.26 L 63.41,315 a 0.51,0.51 0 0 0 -0.45,0 l -1.36,0.79 c -0.13,0.1 -0.14,0.21 -0.03,0.29 z"
       id="path1216" />
    <path
       class="cls-5"
       d="m 59.56,314.91 1.42,0.82 a 0.51,0.51 0 0 0 0.45,0 l 1.36,-0.79 c 0.13,-0.07 0.14,-0.19 0,-0.26 l -1.42,-0.82 a 0.51,0.51 0 0 0 -0.45,0 l -1.36,0.78 c -0.1,0.09 -0.12,0.21 0,0.27 z"
       id="path1218" />
    <path
       class="cls-5"
       d="m 57.54,313.75 1.42,0.82 a 0.5,0.5 0 0 0 0.46,0 l 1.35,-0.78 c 0.14,-0.08 0.15,-0.19 0,-0.26 l -1.42,-0.82 a 0.48,0.48 0 0 0 -0.45,0 l -1.35,0.78 c -0.11,0.08 -0.12,0.2 -0.01,0.26 z"
       id="path1220" />
    <path
       class="cls-5"
       d="m 81.7,327.7 2.39,1.38 a 0.55,0.55 0 0 0 0.45,0 l 1.35,-0.78 c 0.14,-0.08 0.15,-0.2 0,-0.27 l -2.39,-1.38 a 0.55,0.55 0 0 0 -0.45,0 l -1.36,0.79 c -0.09,0.07 -0.11,0.19 0.01,0.26 z"
       id="path1222" />
    <path
       class="cls-5"
       d="m 57.38,311.54 1.42,0.82 c 0.11,0.06 0.11,0.17 0,0.24 l -1.44,0.83 a 0.48,0.48 0 0 1 -0.42,0 l -0.11,-0.07 a 0.45,0.45 0 0 0 -0.39,0 l -1.51,0.88 a 0.45,0.45 0 0 1 -0.42,0 l -0.91,-0.52 a 0.14,0.14 0 0 1 0,-0.25 l 1.42,-0.81 0.29,-0.17 0.21,-0.13 0.22,-0.12 1.22,-0.7 a 0.45,0.45 0 0 1 0.42,0 z"
       id="path1224" />
    <path
       class="cls-5"
       d="m 76.81,331.63 1.42,0.82 a 0.51,0.51 0 0 0 0.45,0 l 1.36,-0.78 c 0.13,-0.08 0.15,-0.2 0,-0.27 l -1.42,-0.82 a 0.55,0.55 0 0 0 -0.45,0 l -1.36,0.79 c -0.1,0.07 -0.11,0.19 0,0.26 z"
       id="path1226" />
    <path
       class="cls-5"
       d="m 74.81,330.47 1.42,0.82 a 0.48,0.48 0 0 0 0.45,0 l 1.35,-0.78 c 0.14,-0.08 0.15,-0.2 0,-0.26 l -1.42,-0.82 a 0.5,0.5 0 0 0 -0.46,0 l -1.35,0.78 c -0.1,0.08 -0.11,0.19 0.01,0.26 z"
       id="path1228" />
    <path
       class="cls-5"
       d="m 72.8,329.31 1.42,0.82 a 0.48,0.48 0 0 0 0.45,0 l 1.36,-0.78 c 0.13,-0.08 0.15,-0.19 0,-0.26 l -1.42,-0.82 a 0.48,0.48 0 0 0 -0.45,0 l -1.36,0.78 c -0.1,0.08 -0.11,0.2 0,0.26 z"
       id="path1230" />
    <path
       class="cls-5"
       d="m 55.73,319.45 1.42,0.82 a 0.51,0.51 0 0 0 0.45,0 l 1.35,-0.79 c 0.14,-0.07 0.15,-0.19 0,-0.26 l -1.42,-0.82 a 0.5,0.5 0 0 0 -0.46,0 l -1.35,0.78 c -0.09,0.09 -0.11,0.21 0.01,0.27 z"
       id="path1232" />
    <path
       class="cls-5"
       d="m 53.72,318.3 1.42,0.82 a 0.51,0.51 0 0 0 0.45,0 l 1.36,-0.78 c 0.13,-0.08 0.15,-0.2 0,-0.27 l -1.42,-0.82 a 0.55,0.55 0 0 0 -0.45,0 l -1.36,0.79 c -0.1,0.07 -0.11,0.19 0,0.26 z"
       id="path1234" />
    <path
       class="cls-5"
       d="m 51.72,317.14 1.42,0.82 a 0.48,0.48 0 0 0 0.45,0 l 1.35,-0.78 c 0.14,-0.08 0.15,-0.2 0,-0.26 l -1.42,-0.82 a 0.5,0.5 0 0 0 -0.46,0 l -1.35,0.78 c -0.09,0.12 -0.11,0.19 0.01,0.26 z"
       id="path1236" />
    <path
       class="cls-5"
       d="m 49.71,316 1.42,0.82 a 0.48,0.48 0 0 0 0.45,0 l 1.36,-0.78 c 0.13,-0.08 0.15,-0.19 0,-0.26 l -1.42,-0.82 a 0.48,0.48 0 0 0 -0.45,0 l -1.36,0.78 c -0.1,0.06 -0.11,0.17 0,0.26 z"
       id="path1238" />
    <path
       class="cls-5"
       d="m 70.28,327.86 1.94,1.14 a 0.51,0.51 0 0 0 0.45,0 l 1.35,-0.79 c 0.14,-0.07 0.15,-0.19 0,-0.26 l -1.94,-1.12 a 0.55,0.55 0 0 0 -0.45,0 l -1.36,0.79 c -0.09,0.05 -0.11,0.17 0.01,0.24 z"
       id="path1240" />
    <path
       class="cls-5"
       d="m 57.73,320.61 1.94,1.12 a 0.48,0.48 0 0 0 0.45,0 l 1.36,-0.78 c 0.13,-0.08 0.14,-0.2 0,-0.26 l -1.94,-1.12 a 0.48,0.48 0 0 0 -0.45,0 l -1.36,0.78 c -0.1,0.08 -0.11,0.19 0,0.26 z"
       id="path1242" />
    <path
       class="cls-5"
       d="m 60.25,322.07 9.45,5.45 a 0.48,0.48 0 0 0 0.45,0 l 1.35,-0.78 c 0.14,-0.08 0.15,-0.2 0,-0.26 L 62.09,321 a 0.51,0.51 0 0 0 -0.45,0 l -1.35,0.79 c -0.14,0.09 -0.15,0.21 -0.04,0.28 z"
       id="path1244" />
    <path
       class="cls-5"
       d="m 77.19,327.34 1.42,0.82 a 0.48,0.48 0 0 0 0.45,0 l 1.36,-0.78 c 0.13,-0.07 0.14,-0.19 0,-0.26 L 79,326.28 a 0.48,0.48 0 0 0 -0.45,0 l -1.36,0.78 c -0.1,0.1 -0.12,0.22 0,0.28 z"
       id="path1246" />
    <path
       class="cls-5"
       d="M 75.18,326.18 76.6,327 a 0.51,0.51 0 0 0 0.45,0 l 1.36,-0.79 c 0.13,-0.07 0.15,-0.19 0,-0.26 L 77,325.12 a 0.48,0.48 0 0 0 -0.45,0 l -1.36,0.78 c -0.11,0.1 -0.13,0.22 -0.01,0.28 z"
       id="path1248" />
    <path
       class="cls-5"
       d="m 73.17,325 1.42,0.82 a 0.51,0.51 0 0 0 0.45,0 L 76.4,325 c 0.13,-0.07 0.15,-0.19 0,-0.26 L 75,324 a 0.51,0.51 0 0 0 -0.45,0 l -1.36,0.78 c -0.12,0.06 -0.14,0.22 -0.02,0.22 z"
       id="path1250" />
    <path
       class="cls-5"
       d="m 71.16,323.86 1.42,0.82 a 0.51,0.51 0 0 0 0.45,0 l 1.36,-0.79 c 0.13,-0.07 0.15,-0.19 0,-0.26 L 73,322.8 a 0.51,0.51 0 0 0 -0.45,0 l -1.36,0.78 c -0.13,0.1 -0.14,0.22 -0.03,0.28 z"
       id="path1252" />
    <path
       class="cls-5"
       d="m 69.15,322.71 1.42,0.82 a 0.57,0.57 0 0 0 0.46,0 l 1.35,-0.79 c 0.14,-0.07 0.15,-0.19 0,-0.26 L 71,321.64 a 0.51,0.51 0 0 0 -0.45,0 l -1.35,0.78 c -0.15,0.1 -0.2,0.22 -0.05,0.29 z"
       id="path1254" />
    <path
       class="cls-5"
       d="m 67.15,321.55 1.42,0.82 a 0.55,0.55 0 0 0 0.45,0 l 1.35,-0.79 c 0.14,-0.07 0.15,-0.19 0,-0.26 L 69,320.48 a 0.57,0.57 0 0 0 -0.46,0 l -1.35,0.78 c -0.19,0.1 -0.19,0.22 -0.04,0.29 z"
       id="path1256" />
    <path
       class="cls-5"
       d="m 65.14,320.39 1.42,0.82 a 0.55,0.55 0 0 0 0.45,0 l 1.35,-0.78 c 0.14,-0.08 0.15,-0.2 0,-0.27 L 67,319.32 a 0.57,0.57 0 0 0 -0.46,0 l -1.35,0.79 C 65,320.2 65,320.32 65.14,320.39 Z"
       id="path1258" />
    <path
       class="cls-5"
       d="m 63.13,319.23 1.42,0.82 a 0.51,0.51 0 0 0 0.45,0 l 1.36,-0.78 c 0.13,-0.08 0.14,-0.2 0,-0.27 L 65,318.16 a 0.55,0.55 0 0 0 -0.45,0 l -1.36,0.79 C 63,319 63,319.16 63.13,319.23 Z"
       id="path1260" />
    <path
       class="cls-5"
       d="m 61.12,318.07 1.42,0.82 a 0.51,0.51 0 0 0 0.45,0 l 1.36,-0.78 c 0.13,-0.08 0.15,-0.2 0,-0.27 L 63,317 a 0.55,0.55 0 0 0 -0.45,0 l -1.36,0.79 C 61,317.88 61,318 61.12,318.07 Z"
       id="path1262" />
    <path
       class="cls-5"
       d="m 59.11,316.91 1.42,0.82 a 0.51,0.51 0 0 0 0.45,0 l 1.36,-0.78 c 0.13,-0.08 0.15,-0.2 0,-0.26 L 61,315.85 a 0.51,0.51 0 0 0 -0.45,0 l -1.36,0.79 c -0.19,0.08 -0.19,0.2 -0.08,0.27 z"
       id="path1264" />
    <path
       class="cls-5"
       d="m 57.1,315.75 1.42,0.82 a 0.53,0.53 0 0 0 0.46,0 l 1.35,-0.78 c 0.13,-0.08 0.15,-0.2 0,-0.26 l -1.42,-0.82 a 0.51,0.51 0 0 0 -0.45,0 l -1.35,0.79 C 57,315.56 57,315.68 57.1,315.75 Z"
       id="path1266" />
    <path
       class="cls-5"
       d="m 55.09,314.59 1.42,0.82 a 0.5,0.5 0 0 0 0.46,0 l 1.35,-0.78 c 0.14,-0.08 0.15,-0.2 0,-0.26 l -1.42,-0.82 a 0.51,0.51 0 0 0 -0.45,0 l -1.35,0.79 c -0.1,0.06 -0.1,0.18 -0.01,0.25 z"
       id="path1268" />
    <path
       class="cls-5"
       d="m 79.2,328.5 2.93,1.7 a 0.5,0.5 0 0 0 0.46,0 l 1.35,-0.78 c 0.13,-0.08 0.15,-0.2 0,-0.26 L 81,327.44 a 0.5,0.5 0 0 0 -0.46,0 l -1.35,0.78 c -0.1,0.1 -0.11,0.22 0.01,0.28 z"
       id="path1270" />
    <path
       class="cls-5"
       d="m 76.24,329 1.42,0.82 a 0.51,0.51 0 0 0 0.45,0 l 1.35,-0.79 c 0.14,-0.07 0.15,-0.19 0,-0.26 L 78.08,328 a 0.53,0.53 0 0 0 -0.46,0 l -1.35,0.78 c -0.14,0.08 -0.15,0.22 -0.03,0.22 z"
       id="path1272" />
    <path
       class="cls-5"
       d="m 74.23,327.89 1.42,0.82 a 0.55,0.55 0 0 0 0.45,0 l 1.36,-0.79 c 0.13,-0.07 0.14,-0.19 0,-0.26 l -1.42,-0.82 a 0.51,0.51 0 0 0 -0.45,0 l -1.36,0.78 c -0.1,0.08 -0.12,0.2 0,0.27 z"
       id="path1274" />
    <path
       class="cls-5"
       d="m 72.22,326.73 1.42,0.82 a 0.55,0.55 0 0 0 0.45,0 l 1.36,-0.79 c 0.13,-0.07 0.15,-0.19 0,-0.26 l -1.42,-0.82 a 0.51,0.51 0 0 0 -0.45,0 l -1.36,0.78 c -0.1,0.08 -0.12,0.2 0,0.27 z"
       id="path1276" />
    <path
       class="cls-5"
       d="m 70.21,325.57 1.42,0.82 a 0.55,0.55 0 0 0 0.45,0 l 1.36,-0.78 c 0.13,-0.08 0.15,-0.2 0,-0.27 l -1.42,-0.82 a 0.55,0.55 0 0 0 -0.45,0 l -1.36,0.79 c -0.1,0.07 -0.11,0.19 0,0.26 z"
       id="path1278" />
    <path
       class="cls-5"
       d="m 68.2,324.41 1.42,0.82 a 0.53,0.53 0 0 0 0.46,0 l 1.35,-0.78 c 0.13,-0.08 0.15,-0.2 0,-0.27 L 70,323.34 a 0.55,0.55 0 0 0 -0.45,0 l -1.35,0.79 c -0.1,0.09 -0.11,0.21 0,0.28 z"
       id="path1280" />
    <path
       class="cls-5"
       d="m 66.19,323.25 1.43,0.82 a 0.51,0.51 0 0 0 0.45,0 l 1.35,-0.78 c 0.14,-0.08 0.15,-0.2 0,-0.26 L 68,322.19 a 0.51,0.51 0 0 0 -0.45,0 l -1.35,0.79 c -0.11,0.08 -0.12,0.2 -0.01,0.27 z"
       id="path1282" />
    <path
       class="cls-5"
       d="m 64.19,322.09 1.42,0.82 a 0.48,0.48 0 0 0 0.45,0 l 1.35,-0.78 c 0.14,-0.08 0.15,-0.2 0,-0.26 L 66,321 a 0.53,0.53 0 0 0 -0.46,0 l -1.35,0.79 c -0.1,0.11 -0.12,0.21 0,0.3 z"
       id="path1284" />
    <path
       class="cls-5"
       d="m 62.18,320.93 1.42,0.82 a 0.48,0.48 0 0 0 0.45,0 l 1.36,-0.78 c 0.13,-0.08 0.14,-0.2 0,-0.26 L 64,319.87 a 0.48,0.48 0 0 0 -0.45,0 l -1.36,0.78 c -0.11,0.1 -0.13,0.21 -0.01,0.28 z"
       id="path1286" />
    <path
       class="cls-5"
       d="m 60.17,319.77 1.42,0.82 a 0.48,0.48 0 0 0 0.45,0 l 1.36,-0.78 c 0.13,-0.08 0.15,-0.2 0,-0.26 L 62,318.71 a 0.48,0.48 0 0 0 -0.45,0 l -1.36,0.78 c -0.12,0.1 -0.14,0.21 -0.02,0.28 z"
       id="path1288" />
    <path
       class="cls-5"
       d="m 58.16,318.61 1.42,0.82 a 0.48,0.48 0 0 0 0.45,0 l 1.36,-0.78 c 0.13,-0.08 0.15,-0.2 0,-0.26 L 60,317.55 a 0.48,0.48 0 0 0 -0.45,0 l -1.35,0.78 c -0.14,0.1 -0.15,0.21 -0.04,0.28 z"
       id="path1290" />
    <path
       class="cls-5"
       d="m 56.15,317.45 1.42,0.82 a 0.5,0.5 0 0 0 0.46,0 l 1.35,-0.78 c 0.14,-0.08 0.15,-0.19 0,-0.26 L 58,316.39 a 0.48,0.48 0 0 0 -0.45,0 l -1.35,0.78 c -0.15,0.1 -0.2,0.21 -0.05,0.28 z"
       id="path1292" />
    <path
       class="cls-5"
       d="m 51.66,314.86 3.91,2.25 a 0.48,0.48 0 0 0 0.45,0 l 1.35,-0.78 c 0.14,-0.08 0.15,-0.19 0,-0.26 l -3.91,-2.26 a 0.55,0.55 0 0 0 -0.45,0 l -1.36,0.79 c -0.09,0.07 -0.11,0.19 0.01,0.26 z"
       id="path1294" />
    <path
       class="cls-5"
       d="m 78.24,330.2 1.94,1.12 a 0.48,0.48 0 0 0 0.45,0 l 1.36,-0.78 c 0.13,-0.08 0.15,-0.19 0,-0.26 l -1.94,-1.12 a 0.48,0.48 0 0 0 -0.45,0 l -1.35,0.78 c -0.11,0.06 -0.12,0.2 -0.01,0.26 z"
       id="path1296" />
  </g>
  <g
     id="_Группа_4"
     data-name="&lt;Группа&gt;"
     transform="translate(0.00186273,-119.51243)">
    <g
       id="_Группа_5"
       data-name="&lt;Группа&gt;">
      <path
         id="_Контур_6"
         data-name="&lt;Контур&gt;"
         class="cls-10"
         d="m 93.16,326 v 0 L 60.93,307.4 v -25.35 l 0.25,-0.56 0.26,-0.14 v 0 a 2.27,2.27 0 0 1 2.23,0 l 29.49,17 a 2.22,2.22 0 0 1 1.11,1.93 v 23.78 c -0.2,1.26 -0.42,1.55 -1.11,1.94 z" />
      <path
         id="_Контур_7"
         data-name="&lt;Контур&gt;"
         class="cls-10"
         d="M 90.2,301.45 60.93,282.9 v -0.85 l 0.25,-0.56 0.26,-0.14 a 2.27,2.27 0 0 1 2.23,0 l 29.49,17 a 2.25,2.25 0 0 1 0.85,0.88 z" />
      <path
         id="_Контур_8"
         data-name="&lt;Контур&gt;"
         class="cls-13"
         d="m 61.67,281.48 31,17.87 a 1.08,1.08 0 0 1 0.54,0.94 V 326 L 60.93,307.4 v -25.49 a 0.49,0.49 0 0 1 0.74,-0.43 z" />
      <path
         id="_Контур_9"
         data-name="&lt;Контур&gt;"
         class="cls-11"
         d="m 61.67,281.48 31,17.87 a 1.08,1.08 0 0 1 0.54,0.94 V 326 L 60.93,307.4 v -25.49 a 0.49,0.49 0 0 1 0.74,-0.43 z" />
      <polygon
         id="_Контур_10"
         data-name="&lt;Контур&gt;"
         class="cls-14"
         points="60.93,306.48 60.93,307.4 93.16,326.01 93.16,325.09 " />
    </g>
    <polygon
       id="_Контур_11"
       data-name="&lt;Контур&gt;"
       class="cls-15"
       points="92.12,323.11 92.12,300.34 62.16,283.04 62.16,305.86 " />
  </g>
  <g
     id="Men_2"
     transform="translate(0.00186273,-119.51243)">
    <path
       id="_Контур_12"
       data-name="&lt;Контур&gt;"
       class="cls-16"
       d="m 8.66,303.64 c -0.27,2.4 -3.13,12.72 -2.51,16.25 0.62,3.53 10.36,9.45 10.36,9.45 l 1.35,-6 -5.4,-5.34 1.46,-10 z" />
    <path
       id="_Контур_13"
       data-name="&lt;Контур&gt;"
       class="cls-17"
       d="m 16.21,293.47 a 4.27,4.27 0 0 0 -5.43,1.64 c -1.44,2.38 -2.93,10.53 -3.06,11.89 0,0 2,2.78 5,2.32 z" />
    <path
       class="cls-18"
       d="m 27.34,408.56 a 8.36,8.36 0 0 0 6.31,-0.77 c 1.52,0 9.78,-3.48 10.9,-0.52 1,2.6 -2.59,5 -4.5,5.47 -4.17,1 -7.25,3.09 -8.93,3.44 -1.25,0.26 -2.86,0.43 -3.85,-0.55 -1.2,-1.17 -1.09,-5.52 0.07,-7.07 z"
       id="path1309" />
    <path
       class="cls-19"
       d="m 31.12,415.46 c 1.68,-0.35 4.76,-2.43 8.93,-3.44 1.6,-0.39 4.35,-2.14 4.63,-4.23 0.37,2.4 -2.85,4.52 -4.63,4.95 -4.17,1 -7.25,3.09 -8.93,3.44 -1.25,0.26 -2.86,0.43 -3.85,-0.55 a 2.34,2.34 0 0 1 -0.55,-1 5,5 0 0 0 4.4,0.83 z"
       id="path1311" />
    <path
       class="cls-18"
       d="m 14,402.55 a 8.38,8.38 0 0 0 6.31,-0.77 c 1.52,0.05 9.77,-3.48 10.89,-0.52 1,2.6 -2.59,5 -4.5,5.47 -4.16,1 -7.25,3.09 -8.92,3.44 -1.25,0.26 -2.86,0.43 -3.86,-0.55 -1.23,-1.17 -1.13,-5.52 0.08,-7.07 z"
       id="path1313" />
    <path
       class="cls-19"
       d="m 17.74,409.45 c 1.67,-0.35 4.76,-2.43 8.92,-3.44 1.6,-0.39 4.36,-2.14 4.64,-4.23 0.37,2.4 -2.85,4.52 -4.64,5 -4.16,1 -7.25,3.09 -8.92,3.44 -1.25,0.26 -2.86,0.43 -3.86,-0.55 a 2.33,2.33 0 0 1 -0.54,-1 5,5 0 0 0 4.4,0.78 z"
       id="path1315" />
    <path
       id="_Контур_14"
       data-name="&lt;Контур&gt;"
       class="cls-6"
       d="m 13.8,380.13 a 49.34,49.34 0 0 1 1.9,-9 c 0,0 -0.57,-7.8 -0.85,-15.2 -0.33,-8.39 -3.24,-15.77 -0.94,-22.47 l 25.89,5.76 c 0,0 -1.56,33.45 -1.91,37.5 a 76.61,76.61 0 0 1 -1.16,9.4 c -1.18,6.49 -3.1,21.94 -3.1,21.94 -2.74,1.59 -6.34,0.71 -6.34,0.71 0,0 0.2,-19.54 0.38,-24.22 0.21,-5.71 0.39,-5.27 0.39,-5.27 L 27.2,365 26.64,357.92 c 0,0 -0.72,5.2 -1.18,9.84 -0.41,4.05 -1.39,7.71 -2.48,15.24 -0.94,6.54 -2.48,19.67 -2.48,19.67 -2.74,1.59 -6.46,0.27 -6.46,0.27 0,0 -0.98,-17.14 -0.24,-22.81 z" />
    <path
       id="_Контур_15"
       data-name="&lt;Контур&gt;"
       class="cls-16"
       d="m 17.58,293.61 c 2,0.1 3.44,0.61 3.68,0 a 24,24 0 0 0 0.45,-3.08 c -0.22,-0.57 -0.42,-1.18 -0.42,-1.18 -2.48,-1.53 -3.26,-4.2 -3.58,-7.32 -0.56,-5.33 2.32,-10 7.65,-10.55 5,-0.52 8.69,3 9.67,7.83 0.53,2.39 1.58,6.9 0.16,10.82 -0.8,2.2 -1.82,3.94 -2.85,4.28 a 26.44,26.44 0 0 1 -3,-0.26 v 0 c 0,0 -0.27,1.48 -0.45,2.43 -0.18,0.95 -0.11,1.45 1.78,2.61 1.89,1.16 -2.86,3.56 -6,3.33 -3.14,-0.23 -6.6,-2.11 -7.55,-4.12 -0.99,-2.22 -0.9,-4.85 0.46,-4.79 z" />
    <path
       id="_Контур_16"
       data-name="&lt;Контур&gt;"
       class="cls-11"
       d="m 20.43,293.9 c -0.55,1.37 0.84,3 4.55,4.2 3.71,1.2 4,-0.34 4,-0.34 a 74.4,74.4 0 0 1 7.2,3.71 c 2.22,1.56 3.21,6 3.51,13.64 0.34,8.79 0.37,21.82 0.08,24.07 0,0 -4.15,4.14 -9.47,3.7 -5.32,-0.44 -14.26,-5.14 -16.43,-8.77 0.06,-7.7 1,-9 -0.28,-13.4 -2.86,-10.15 -4.36,-14.31 -3,-21.06 1.14,-5.57 2.74,-6.26 4.94,-6.2 a 45.35,45.35 0 0 1 4.9,0.45 z" />
    <path
       id="_Контур_17"
       data-name="&lt;Контур&gt;"
       class="cls-16"
       d="m 48.07,322.38 c -4.36,1.1 -5.38,-1.66 -6,-3.93 -1.38,-5.52 -2.13,-10.5 -3.17,-13.63 -1.21,-3.69 -2.49,-4.28 -4.29,-5 -2.1,-0.84 -3.91,0.94 -3.21,5.64 a 94.91,94.91 0 0 0 4,16 c 0.55,1.72 1.77,4.77 3.59,6.25 2.25,1.82 5.64,1.74 10.77,0.46 2.18,-0.54 4.58,-1.85 8.72,-3.78 1.11,-0.52 2,-0.86 4.11,-1.85 a 14.64,14.64 0 0 0 5.47,-4.27 c 1.11,-1.62 1.26,-2.38 1,-2.75 -0.26,-0.37 -0.79,-0.36 -1.38,0.32 a 12.12,12.12 0 0 1 -3.14,2.91 c 0,0 1.37,-1.43 2.12,-2.35 a 12,12 0 0 0 1.65,-2.7 c 0.39,-0.94 -0.42,-2.22 -1,-1.55 -0.58,0.67 -0.92,1.36 -2,2.71 a 11.58,11.58 0 0 1 -2,1.93 22.06,22.06 0 0 0 1.87,-3 5,5 0 0 0 0.68,-2.71 c 0,-0.49 -0.73,-1.08 -1.39,-0.14 a 17.61,17.61 0 0 1 -2.34,3.58 c -1,1 -1.84,1.63 -1.87,1.34 -0.03,-0.29 0.61,-0.86 1,-2.06 0.39,-1.2 0,-2.48 -0.66,-2.61 -0.66,-0.13 -0.54,-0.11 -1.08,1 a 35.32,35.32 0 0 0 -2,3.6 7.42,7.42 0 0 1 -1.79,3.09 c -1.14,1.19 -3.51,2.45 -7.66,3.5 z" />
    <path
       id="_Контур_18"
       data-name="&lt;Контур&gt;"
       class="cls-17"
       d="m 33,299.07 c 2.91,-0.43 5,0.88 6.26,5.29 1.26,4.41 2.18,8 2.18,8 a 7.89,7.89 0 0 1 -4.88,3.24 c -3.48,0.85 -4.74,-0.82 -4.74,-0.82 0,0 -1,-4.62 -1.57,-7.77 -0.57,-3.15 -0.81,-7.41 2.75,-7.94 z" />
    <path
       class="cls-20"
       d="m 34.86,278.63 c 0,0 4.6,-7 -5.37,-8.43 -7.19,-1 -11.81,3.6 -12.35,8.61 -0.51,4.79 2.44,9.77 4.57,11.74 1,0.37 3.28,0.59 6.22,-0.75 a 35.4,35.4 0 0 0 0.14,-3.92 c 0,0 -3.51,-7.38 6.79,-7.25 z"
       id="path1322" />
  </g>
  <g
     id="Canvas"
     transform="matrix(4.0495342,0,0,4.0495342,-6480.5841,-9936.3011)"
     figma:type="canvas">
    <g
       id="g2566"
       style="mix-blend-mode:normal"
       figma:type="group">
      <g
         id="g2564"
         style="mix-blend-mode:normal"
         figma:type="group">
        <g
           id="Group"
           style="mix-blend-mode:normal"
           figma:type="group">
          <g
             id="g"
             style="mix-blend-mode:normal"
             figma:type="group">
            <g
               id="path"
               style="mix-blend-mode:normal"
               figma:type="group">
              <g
                 id="path9 fill"
                 style="mix-blend-mode:normal"
                 figma:type="vector">
                <path
                   id="use2501"
                   d="m 1642.285,2479.8353 c 0,1.5581 -0.1247,2.0655 -0.4452,2.4394 -0.3567,0.3213 -0.8198,0.4989 -1.2998,0.4986 l 0.1246,0.8903 c 0.7442,0.01 1.4664,-0.2528 2.0299,-0.7389 0.3033,-0.3698 0.5289,-0.7969 0.6635,-1.2558 0.1346,-0.4588 0.1754,-0.9401 0.12,-1.4151 v -5.8938 h -1.193 v 5.4397 z"
                   style="mix-blend-mode:normal;fill:#4e4e4e" />
              </g>
            </g>
            <g
               id="g2508"
               style="mix-blend-mode:normal"
               figma:type="group">
              <g
                 id="path10 fill"
                 style="mix-blend-mode:normal"
                 figma:type="vector">
                <path
                   id="use2505"
                   d="m 1651.182,2479.1331 c 0,0.6677 0,1.2642 0.053,1.7806 h -1.0595 l -0.071,-1.0595 c -0.2216,0.3749 -0.5385,0.6844 -0.9185,0.897 -0.38,0.2127 -0.8095,0.321 -1.2449,0.3138 -1.0328,0 -2.2614,-0.5609 -2.2614,-2.8489 v -3.8016 h 1.193 v 3.5612 c 0,1.2375 0.3828,2.0655 1.4601,2.0655 0.2216,0 0.4415,-0.04 0.6467,-0.1232 0.2053,-0.084 0.3917,-0.2076 0.5484,-0.3643 0.1567,-0.1568 0.2806,-0.3432 0.3643,-0.5484 0.084,-0.2053 0.1256,-0.4251 0.1233,-0.6468 v -3.9885 h 1.1929 v 4.7275 z"
                   style="mix-blend-mode:normal;fill:#4e4e4e" />
              </g>
            </g>
            <g
               id="g2513"
               style="mix-blend-mode:normal"
               figma:type="group">
              <g
                 id="path11 fill"
                 style="mix-blend-mode:normal"
                 figma:type="vector">
                <path
                   id="use2510"
                   d="m 1653.4434,2476.5326 c 0,-0.8279 0,-1.5046 -0.053,-2.1189 h 1.0684 l 0.053,1.1129 c 0.238,-0.4021 0.5807,-0.732 0.9915,-0.9546 0.4107,-0.2227 0.8742,-0.3297 1.3411,-0.3096 1.5847,0 2.7777,1.3265 2.7777,3.303 0,2.3326 -1.4334,3.49 -2.9825,3.49 -0.3965,0.018 -0.7909,-0.067 -1.1449,-0.2467 -0.3541,-0.1793 -0.6558,-0.447 -0.8761,-0.7772 v 0 3.5612 h -1.1752 v -7.0333 z m 1.1752,1.7361 c 0,0.1616 0.021,0.3225 0.053,0.4808 0.101,0.3953 0.331,0.7456 0.6535,0.9956 0.3225,0.2499 0.7191,0.3852 1.1271,0.3843 1.2553,0 1.9943,-1.0238 1.9943,-2.5106 0,-1.2998 -0.6944,-2.4127 -1.9498,-2.4127 -0.4967,0.041 -0.9616,0.2612 -1.3074,0.6201 -0.3459,0.3589 -0.5489,0.8317 -0.5711,1.3297 z"
                   style="mix-blend-mode:normal;fill:#4e4e4e" />
              </g>
            </g>
            <g
               id="g2518"
               style="mix-blend-mode:normal"
               figma:type="group">
              <g
                 id="path12 fill"
                 style="mix-blend-mode:normal"
                 figma:type="vector">
                <path
                   id="use2515"
                   d="m 1661.7476,2474.4078 1.4334,3.8372 c 0.1514,0.4273 0.3116,0.9437 0.4185,1.3265 0.1246,-0.3917 0.2581,-0.8903 0.4184,-1.3532 l 1.2998,-3.8105 h 1.2554 l -1.7806,4.6296 c -0.8903,2.2257 -1.4334,3.3742 -2.2525,4.0686 -0.4125,0.3768 -0.9155,0.6406 -1.4601,0.7657 l -0.2938,-0.9972 c 0.3808,-0.1251 0.7343,-0.3215 1.0417,-0.5787 0.4343,-0.3539 0.779,-0.8054 1.006,-1.3176 0.049,-0.089 0.082,-0.1851 0.098,-0.2849 -0.01,-0.1074 -0.037,-0.2126 -0.08,-0.3116 l -2.4216,-5.9917 h 1.2998 z"
                   style="mix-blend-mode:normal;fill:#4e4e4e" />
              </g>
            </g>
            <g
               id="g2523"
               style="mix-blend-mode:normal"
               figma:type="group">
              <g
                 id="path13 fill"
                 style="mix-blend-mode:normal"
                 figma:type="vector">
                <path
                   id="use2520"
                   d="m 1669.7401,2472.54 v 1.8696 h 1.7094 v 0.8903 h -1.7094 v 3.5078 c 0,0.8013 0.2315,1.2642 0.8903,1.2642 0.234,0 0.4675,-0.023 0.6945,-0.08 l 0.053,0.8903 c -0.3404,0.1179 -0.6995,0.1722 -1.0595,0.1602 -0.2384,0.015 -0.4772,-0.022 -0.7,-0.1079 -0.2229,-0.086 -0.4244,-0.2193 -0.5909,-0.3906 -0.3626,-0.4851 -0.5281,-1.0895 -0.463,-1.6916 v -3.5612 h -1.0149 v -0.8903 h 1.0327 v -1.5847 z"
                   style="mix-blend-mode:normal;fill:#4e4e4e" />
              </g>
            </g>
            <g
               id="g2528"
               style="mix-blend-mode:normal"
               figma:type="group">
              <g
                 id="path14 fill"
                 style="mix-blend-mode:normal"
                 figma:type="vector">
                <path
                   id="use2525"
                   d="m 1673.6472,2477.869 c -0.024,0.3019 0.017,0.6055 0.1221,0.8898 0.1047,0.2842 0.2698,0.5423 0.484,0.7565 0.2142,0.2142 0.4723,0.3793 0.7566,0.484 0.2842,0.1046 0.5878,0.1463 0.8897,0.1222 0.6107,0.014 1.2175,-0.1017 1.7806,-0.3384 l 0.2048,0.8903 c -0.6911,0.2847 -1.4341,0.4212 -2.1812,0.4007 -0.4356,0.03 -0.8724,-0.035 -1.2806,-0.1898 -0.4081,-0.1549 -0.778,-0.3962 -1.0841,-0.7074 -0.3062,-0.3112 -0.5414,-0.685 -0.6895,-1.0956 -0.1481,-0.4107 -0.2057,-0.8485 -0.1687,-1.2835 0,-1.9587 1.1663,-3.5078 3.0715,-3.5078 2.1367,0 2.6709,1.8696 2.6709,3.0626 0.011,0.1838 0.011,0.3682 0,0.552 h -4.6028 z m 3.4899,-0.8903 c 0.034,-0.238 0.017,-0.4806 -0.05,-0.7115 -0.067,-0.2309 -0.1834,-0.4447 -0.3403,-0.6269 -0.1569,-0.1822 -0.3511,-0.3287 -0.5694,-0.4296 -0.2183,-0.1008 -0.4557,-0.1537 -0.6962,-0.155 -0.4892,0.035 -0.9475,0.2522 -1.2851,0.6079 -0.3376,0.3558 -0.5302,0.8248 -0.54,1.3151 z"
                   style="mix-blend-mode:normal;fill:#4e4e4e" />
              </g>
            </g>
            <g
               id="g2533"
               style="mix-blend-mode:normal"
               figma:type="group">
              <g
                 id="path15 fill"
                 style="mix-blend-mode:normal"
                 figma:type="vector">
                <path
                   id="use2530"
                   d="m 1680.0334,2476.4323 c 0,-0.7657 0,-1.4245 -0.053,-2.0299 h 1.0684 v 1.2731 h 0.053 c 0.1121,-0.3929 0.3438,-0.7412 0.6629,-0.9965 0.3191,-0.2552 0.7097,-0.4048 1.1177,-0.4279 0.1123,-0.015 0.226,-0.015 0.3383,0 v 1.1128 c -0.1361,-0.016 -0.2735,-0.016 -0.4096,0 -0.4041,0.016 -0.7887,0.1779 -1.082,0.4565 -0.2933,0.2785 -0.4751,0.6542 -0.5116,1.057 -0.033,0.1822 -0.051,0.3668 -0.053,0.552 v 3.4633 h -1.1752 v -4.4515 z"
                   style="mix-blend-mode:normal;fill:#4e4e4e" />
              </g>
            </g>
          </g>
        </g>
        <g
           id="g2562"
           style="mix-blend-mode:normal"
           figma:type="group">
          <g
             id="g2540"
             style="mix-blend-mode:normal"
             figma:type="group">
            <g
               id="path16 fill"
               style="mix-blend-mode:normal"
               figma:type="vector">
              <path
                 id="use2537"
                 d="m 1679.5106,2456.5257 c 0.037,0.5981 -0.1057,1.1935 -0.4088,1.7105 -0.303,0.5169 -0.7531,0.9319 -1.2929,1.1922 -0.5397,0.2602 -1.1447,0.3539 -1.7379,0.2691 -0.5932,-0.085 -1.1477,-0.3442 -1.593,-0.7453 -0.4452,-0.4011 -0.7609,-0.9256 -0.907,-1.5067 -0.146,-0.5812 -0.1158,-1.1927 0.087,-1.7566 0.2027,-0.5639 0.5686,-1.0547 1.0513,-1.4099 0.4826,-0.3551 1.06,-0.5586 1.6586,-0.5845 0.3926,-0.022 0.7855,0.035 1.1562,0.1654 0.3707,0.1308 0.7119,0.3336 1.0039,0.5967 0.2921,0.2631 0.5293,0.5813 0.6979,0.9364 0.1687,0.3551 0.2654,0.74 0.2848,1.1327 z"
                 style="mix-blend-mode:normal;fill:#767677" />
            </g>
          </g>
          <g
             id="g2545"
             style="mix-blend-mode:normal"
             figma:type="group">
            <g
               id="path17 fill"
               style="mix-blend-mode:normal"
               figma:type="vector">
              <path
                 id="use2542"
                 d="m 1661.9062,2491.3924 c -8.0126,0 -15.0549,-2.8757 -18.6962,-7.1224 1.4128,3.8204 3.9622,7.1163 7.3048,9.444 3.3426,2.3278 7.3182,3.5756 11.3914,3.5756 4.0733,0 8.0488,-1.2478 11.3915,-3.5756 3.3426,-2.3277 5.8919,-5.6236 7.3048,-9.444 -3.6324,4.2467 -10.648,7.1224 -18.6963,7.1224 z"
                 style="mix-blend-mode:normal;fill:#f37726" />
            </g>
          </g>
          <g
             id="g2550"
             style="mix-blend-mode:normal"
             figma:type="group">
            <g
               id="path18 fill"
               style="mix-blend-mode:normal"
               figma:type="vector">
              <path
                 id="use2547"
                 d="m 1661.9062,2463.7773 c 8.0127,0 15.055,2.8756 18.6963,7.1223 -1.4129,-3.8204 -3.9622,-7.1163 -7.3048,-9.444 -3.3427,-2.3277 -7.3182,-3.5756 -11.3915,-3.5756 -4.0732,0 -8.0488,1.2479 -11.3914,3.5756 -3.3426,2.3277 -5.892,5.6236 -7.3048,9.444 3.6413,-4.2556 10.648,-7.1223 18.6962,-7.1223 z"
                 style="mix-blend-mode:normal;fill:#f37726" />
            </g>
          </g>
          <g
             id="g2555"
             style="mix-blend-mode:normal"
             figma:type="group">
            <g
               id="path19 fill"
               style="mix-blend-mode:normal"
               figma:type="vector">
              <path
                 id="use2552"
                 d="m 1650.8758,2499.6566 c 0.047,0.7533 -0.1314,1.5036 -0.5123,2.1553 -0.381,0.6516 -0.9473,1.1751 -1.6268,1.5037 -0.6796,0.3286 -1.4415,0.4475 -2.1889,0.3416 -0.7473,-0.106 -1.4462,-0.4321 -2.0076,-0.9367 -0.5614,-0.5046 -0.9598,-1.1649 -1.1446,-1.8967 -0.1847,-0.7319 -0.1474,-1.5022 0.1072,-2.2128 0.2546,-0.7106 0.715,-1.3293 1.3224,-1.7773 0.6075,-0.448 1.3347,-0.705 2.0887,-0.7383 0.494,-0.026 0.9884,0.045 1.4549,0.2094 0.4665,0.1647 0.8959,0.4197 1.2638,0.7504 0.368,0.3307 0.6671,0.7306 0.8804,1.177 0.2133,0.4464 0.3366,0.9304 0.3628,1.4244 z"
                 style="mix-blend-mode:normal;fill:#9e9e9e" />
            </g>
          </g>
          <g
             id="g2560"
             style="mix-blend-mode:normal"
             figma:type="group">
            <g
               id="path20 fill"
               style="mix-blend-mode:normal"
               figma:type="vector">
              <path
                 id="use2557"
                 d="m 1644.1206,2462.8094 c -0.4317,0.012 -0.8574,-0.1041 -1.2234,-0.3334 -0.366,-0.2293 -0.656,-0.5618 -0.8336,-0.9555 -0.1775,-0.3937 -0.2347,-0.8312 -0.1643,-1.2573 0.07,-0.4261 0.2652,-0.822 0.5599,-1.1377 0.2948,-0.3157 0.6763,-0.5372 1.0966,-0.6366 0.4203,-0.099 0.8606,-0.072 1.2656,0.078 0.405,0.1501 0.7566,0.4166 1.0105,0.766 0.2539,0.3494 0.3988,0.7661 0.4165,1.1977 0.017,0.5835 -0.1971,1.1501 -0.5955,1.5768 -0.3984,0.4268 -0.949,0.6791 -1.5323,0.7023 z"
                 style="mix-blend-mode:normal;fill:#616262" />
            </g>
          </g>
        </g>
      </g>
    </g>
  </g>
</svg>
